<?xml version="1.0" encoding="utf-8"?>
<!-- Generator: Adobe Illustrator 23.0.0, SVG Export Plug-In . SVG Version: 6.00 Build 0)  -->
<svg version="1.1" id="Capa_1" xmlns="http://www.w3.org/2000/svg" xmlns:xlink="http://www.w3.org/1999/xlink" x="0px" y="0px"
	 viewBox="0 0 139.8 48" style="enable-background:new 0 0 139.8 48;" xml:space="preserve">
<style type="text/css">
	.st0{clip-path:url(#SVGID_2_);}
	.st1{fill:#DB4437;}
	.st2{fill:url(#SVGID_3_);}
	.st3{clip-path:url(#SVGID_5_);fill:#3E2723;fill-opacity:0.15;}
	.st4{clip-path:url(#SVGID_7_);}
	.st5{fill:#0F9D58;}
	.st6{fill:url(#SVGID_8_);}
	.st7{clip-path:url(#SVGID_10_);fill:#263238;fill-opacity:0.15;}
	.st8{clip-path:url(#SVGID_12_);}
	.st9{clip-path:url(#SVGID_14_);}
	.st10{fill:#FFCD40;}
	.st11{fill:url(#SVGID_15_);}
	.st12{clip-path:url(#SVGID_17_);}
	.st13{fill:url(#SVGID_18_);}
	.st14{clip-path:url(#SVGID_20_);}
	.st15{clip-path:url(#SVGID_22_);}
	.st16{fill:url(#SVGID_23_);}
	.st17{clip-path:url(#SVGID_25_);fill:url(#SVGID_26_);}
	.st18{clip-path:url(#SVGID_28_);}
	.st19{clip-path:url(#SVGID_30_);}
	.st20{fill:url(#SVGID_31_);}
	.st21{clip-path:url(#SVGID_33_);fill:url(#SVGID_34_);}
	.st22{clip-path:url(#SVGID_36_);fill:url(#SVGID_37_);}
	.st23{clip-path:url(#SVGID_39_);}
	.st24{fill:#F1F1F1;}
	.st25{fill:#4285F4;}
	.st26{clip-path:url(#SVGID_41_);}
	.st27{fill:#3E2723;fill-opacity:0.2;}
	.st28{fill:#FFFFFF;fill-opacity:0.1;}
	.st29{opacity:0.1;fill:#3E2723;enable-background:new    ;}
	.st30{fill:#FFFFFF;fill-opacity:0.2;}
	.st31{clip-path:url(#SVGID_43_);}
	.st32{fill:#3E2723;fill-opacity:0.15;}
	.st33{fill:url(#SVGID_44_);}
	.st34{fill:none;}
	.st35{fill:#FFFFFF;}
</style>
<g>
	<defs>
		<circle id="SVGID_1_" cx="28" cy="24" r="22"/>
	</defs>
	<clipPath id="SVGID_2_">
		<use xlink:href="#SVGID_1_"  style="overflow:visible;"/>
	</clipPath>
	<g class="st0">
		<path class="st1" d="M9.5,2v27h9.8L28,14h22V2H9.5z"/>
		
			<linearGradient id="SVGID_3_" gradientUnits="userSpaceOnUse" x1="1233.3367" y1="-1739.4692" x2="1285.8367" y2="-1708.8022" gradientTransform="matrix(0.25 0 0 -0.25 -297 -416.1122)">
			<stop  offset="0" style="stop-color:#A52714;stop-opacity:0.6"/>
			<stop  offset="0.66" style="stop-color:#A52714;stop-opacity:0"/>
		</linearGradient>
		<path class="st2" d="M9.5,2v27h9.8L28,14h22V2H9.5z"/>
	</g>
</g>
<g>
	<defs>
		<circle id="SVGID_4_" cx="28" cy="24" r="22"/>
	</defs>
	<clipPath id="SVGID_5_">
		<use xlink:href="#SVGID_4_"  style="overflow:visible;"/>
	</clipPath>
	<path class="st3" d="M19.6,28.9l-10-17.1l-0.1,0.3l9.9,17L19.6,28.9z"/>
</g>
<g>
	<defs>
		<circle id="SVGID_6_" cx="28" cy="24" r="22"/>
	</defs>
	<clipPath id="SVGID_7_">
		<use xlink:href="#SVGID_6_"  style="overflow:visible;"/>
	</clipPath>
	<g class="st4">
		<path class="st5" d="M6,46h20.9l9.7-9.7V29H19.3L6,6.1V46z"/>
		
			<linearGradient id="SVGID_8_" gradientUnits="userSpaceOnUse" x1="1314.8734" y1="-1828.9414" x2="1256.5394" y2="-1794.7754" gradientTransform="matrix(0.25 0 0 -0.25 -297 -416.1122)">
			<stop  offset="0" style="stop-color:#055524;stop-opacity:0.4"/>
			<stop  offset="0.33" style="stop-color:#055524;stop-opacity:0"/>
		</linearGradient>
		<path class="st6" d="M6,46h20.9l9.7-9.7V29H19.3L6,6.1V46z"/>
	</g>
</g>
<g>
	<defs>
		<circle id="SVGID_9_" cx="28" cy="24" r="22"/>
	</defs>
	<clipPath id="SVGID_10_">
		<use xlink:href="#SVGID_9_"  style="overflow:visible;"/>
	</clipPath>
	<path class="st7" d="M36.5,29.3l-0.2-0.1L26.7,46h0.3L36.5,29.3L36.5,29.3z"/>
</g>
<g>
	<defs>
		<circle id="SVGID_11_" cx="28" cy="24" r="22"/>
	</defs>
	<clipPath id="SVGID_12_">
		<use xlink:href="#SVGID_11_"  style="overflow:visible;"/>
	</clipPath>
	<g class="st8">
		<g>
			<defs>
				<polygon id="SVGID_13_" points="6,46 26.9,46 36.7,36.3 36.7,29 19.3,29 6,6.1 				"/>
			</defs>
			<clipPath id="SVGID_14_">
				<use xlink:href="#SVGID_13_"  style="overflow:visible;"/>
			</clipPath>
			<g class="st9">
				<path class="st10" d="M28,14l8.7,15l-9.7,17H50V14H28z"/>
				
					<linearGradient id="SVGID_15_" gradientUnits="userSpaceOnUse" x1="1325.8557" y1="-1714.2533" x2="1340.5447" y2="-1778.5793" gradientTransform="matrix(0.25 0 0 -0.25 -297 -416.1122)">
					<stop  offset="0" style="stop-color:#EA6100;stop-opacity:0.3"/>
					<stop  offset="0.66" style="stop-color:#EA6100;stop-opacity:0"/>
				</linearGradient>
				<path class="st11" d="M28,14l8.7,15l-9.7,17H50V14H28z"/>
			</g>
		</g>
	</g>
</g>
<g>
	<defs>
		<circle id="SVGID_16_" cx="28" cy="24" r="22"/>
	</defs>
	<clipPath id="SVGID_17_">
		<use xlink:href="#SVGID_16_"  style="overflow:visible;"/>
	</clipPath>
	<g class="st12">
		<path class="st10" d="M28,14l8.7,15l-9.7,17H50V14H28z"/>
		
			<linearGradient id="SVGID_18_" gradientUnits="userSpaceOnUse" x1="1325.8557" y1="-1714.2533" x2="1340.5447" y2="-1778.5793" gradientTransform="matrix(0.25 0 0 -0.25 -297 -416.1122)">
			<stop  offset="0" style="stop-color:#EA6100;stop-opacity:0.3"/>
			<stop  offset="0.66" style="stop-color:#EA6100;stop-opacity:0"/>
		</linearGradient>
		<path class="st13" d="M28,14l8.7,15l-9.7,17H50V14H28z"/>
	</g>
</g>
<g>
	<defs>
		<circle id="SVGID_19_" cx="28" cy="24" r="22"/>
	</defs>
	<clipPath id="SVGID_20_">
		<use xlink:href="#SVGID_19_"  style="overflow:visible;"/>
	</clipPath>
	<g class="st14">
		<g>
			<defs>
				<polygon id="SVGID_21_" points="28,14 36.7,29 26.9,46 50,46 50,14 				"/>
			</defs>
			<clipPath id="SVGID_22_">
				<use xlink:href="#SVGID_21_"  style="overflow:visible;"/>
			</clipPath>
			<g class="st15">
				<path class="st1" d="M9.5,2v27h9.8L28,14h22V2H9.5z"/>
				
					<linearGradient id="SVGID_23_" gradientUnits="userSpaceOnUse" x1="1233.3367" y1="-1739.4692" x2="1285.8367" y2="-1708.8022" gradientTransform="matrix(0.25 0 0 -0.25 -297 -416.1122)">
					<stop  offset="0" style="stop-color:#A52714;stop-opacity:0.6"/>
					<stop  offset="0.66" style="stop-color:#A52714;stop-opacity:0"/>
				</linearGradient>
				<path class="st16" d="M9.5,2v27h9.8L28,14h22V2H9.5z"/>
			</g>
		</g>
	</g>
</g>
<g>
	<defs>
		<circle id="SVGID_24_" cx="28" cy="24" r="22"/>
	</defs>
	<clipPath id="SVGID_25_">
		<use xlink:href="#SVGID_24_"  style="overflow:visible;"/>
	</clipPath>
	
		<radialGradient id="SVGID_26_" cx="1872.176" cy="-1720.3969" r="84.078" gradientTransform="matrix(0.25 0 0 -0.25 -441 -416.1122)" gradientUnits="userSpaceOnUse">
		<stop  offset="0" style="stop-color:#3E2723;stop-opacity:0.2"/>
		<stop  offset="1" style="stop-color:#3E2723;stop-opacity:0"/>
	</radialGradient>
	<path class="st17" d="M28,14v5.2L47.6,14H28z"/>
</g>
<g>
	<defs>
		<circle id="SVGID_27_" cx="28" cy="24" r="22"/>
	</defs>
	<clipPath id="SVGID_28_">
		<use xlink:href="#SVGID_27_"  style="overflow:visible;"/>
	</clipPath>
	<g class="st18">
		<g>
			<defs>
				<polygon id="SVGID_29_" points="9.5,2 9.5,12.1 19.3,29 28,14 50,14 50,2 				"/>
			</defs>
			<clipPath id="SVGID_30_">
				<use xlink:href="#SVGID_29_"  style="overflow:visible;"/>
			</clipPath>
			<g class="st19">
				<path class="st5" d="M6,46h20.9l9.7-9.7V29H19.3L6,6.1V46z"/>
				
					<linearGradient id="SVGID_31_" gradientUnits="userSpaceOnUse" x1="1314.8734" y1="-1828.9414" x2="1256.5394" y2="-1794.7754" gradientTransform="matrix(0.25 0 0 -0.25 -297 -416.1122)">
					<stop  offset="0" style="stop-color:#055524;stop-opacity:0.4"/>
					<stop  offset="0.33" style="stop-color:#055524;stop-opacity:0"/>
				</linearGradient>
				<path class="st20" d="M6,46h20.9l9.7-9.7V29H19.3L6,6.1V46z"/>
			</g>
		</g>
	</g>
</g>
<g>
	<defs>
		<circle id="SVGID_32_" cx="28" cy="24" r="22"/>
	</defs>
	<clipPath id="SVGID_33_">
		<use xlink:href="#SVGID_32_"  style="overflow:visible;"/>
	</clipPath>
	
		<radialGradient id="SVGID_34_" cx="1801.875" cy="-1712.9689" r="78.044" gradientTransform="matrix(0.25 0 0 -0.25 -441 -416.1122)" gradientUnits="userSpaceOnUse">
		<stop  offset="0" style="stop-color:#3E2723;stop-opacity:0.2"/>
		<stop  offset="1" style="stop-color:#3E2723;stop-opacity:0"/>
	</radialGradient>
	<path class="st21" d="M9.5,12.1l14.3,14.3L19.3,29L9.5,12.1z"/>
</g>
<g>
	<defs>
		<circle id="SVGID_35_" cx="28" cy="24" r="22"/>
	</defs>
	<clipPath id="SVGID_36_">
		<use xlink:href="#SVGID_35_"  style="overflow:visible;"/>
	</clipPath>
	
		<radialGradient id="SVGID_37_" cx="1875.844" cy="-1760.5868" r="87.87" gradientTransform="matrix(0.25 0 0 -0.25 -441 -416.1122)" gradientUnits="userSpaceOnUse">
		<stop  offset="0" style="stop-color:#263238;stop-opacity:0.2"/>
		<stop  offset="1" style="stop-color:#263238;stop-opacity:0"/>
	</radialGradient>
	<path class="st22" d="M27,46l5.2-19.5l4.5,2.6L27,46z"/>
</g>
<g>
	<defs>
		<circle id="SVGID_38_" cx="28" cy="24" r="22"/>
	</defs>
	<clipPath id="SVGID_39_">
		<use xlink:href="#SVGID_38_"  style="overflow:visible;"/>
	</clipPath>
	<g class="st23">
		<circle class="st24" cx="28" cy="24" r="10"/>
		<circle class="st25" cx="28" cy="24" r="8"/>
	</g>
</g>
<g>
	<defs>
		<circle id="SVGID_40_" cx="28" cy="24" r="22"/>
	</defs>
	<clipPath id="SVGID_41_">
		<use xlink:href="#SVGID_40_"  style="overflow:visible;"/>
	</clipPath>
	<g class="st26">
		<path class="st27" d="M28,13.8c-5.5,0-10,4.5-10,10V24c0-5.5,4.5-10,10-10h22v-0.3H28z"/>
		<path class="st28" d="M36.7,29c-1.7,3-5,5-8.7,5c-3.7,0-6.9-2-8.7-5h0L6,6.1v0.3l13.3,22.9h0c1.7,3,5,5,8.7,5c3.7,0,6.9-2,8.7-5h0
			L36.7,29L36.7,29z"/>
		<path class="st29" d="M28.3,14c0,0-0.1,0-0.1,0c5.5,0.1,9.9,4.5,9.9,10s-4.4,9.9-9.9,10c0,0,0.1,0,0.1,0c5.5,0,10-4.5,10-10
			S33.8,14,28.3,14z"/>
		<path class="st30" d="M36.8,29.3c0.8-1.5,1.3-3.2,1.3-5c0-1.1-0.2-2.1-0.5-3c0.2,0.9,0.4,1.8,0.4,2.7c0,1.8-0.5,3.5-1.3,5l0,0
			l-9.7,17h0.3L36.8,29.3C36.8,29.3,36.8,29.3,36.8,29.3z"/>
	</g>
</g>
<g>
	<defs>
		<circle id="SVGID_42_" cx="28" cy="24" r="22"/>
	</defs>
	<clipPath id="SVGID_43_">
		<use xlink:href="#SVGID_42_"  style="overflow:visible;"/>
	</clipPath>
	<g class="st31">
		<path class="st30" d="M28,2.3c12.1,0,21.9,9.8,22,21.9c0,0,0-0.1,0-0.1c0-12.2-9.9-22-22-22S6,11.9,6,24c0,0,0,0.1,0,0.1
			C6.1,12,15.9,2.3,28,2.3z"/>
		<path class="st32" d="M28,45.8c12.1,0,21.9-9.8,22-21.9c0,0,0,0.1,0,0.1c0,12.2-9.9,22-22,22S6,36.2,6,24c0,0,0-0.1,0-0.1
			C6.1,36,15.9,45.8,28,45.8z"/>
	</g>
</g>
<radialGradient id="SVGID_44_" cx="1238.286" cy="-1696.4628" r="176.746" gradientTransform="matrix(0.25 0 0 -0.25 -297 -416.1122)" gradientUnits="userSpaceOnUse">
	<stop  offset="0" style="stop-color:#FFFFFF;stop-opacity:0.1"/>
	<stop  offset="1" style="stop-color:#FFFFFF;stop-opacity:0"/>
</radialGradient>
<circle class="st33" cx="28" cy="24" r="22"/>
<path class="st34" d="M4,0h48v48H4V0z"/>
<g>
	<path class="st35" d="M64.1,18.8c-1.5,0-2.6,0.5-3.5,1.6c-0.8,1.1-1.3,2.5-1.3,4.3c0,1.9,0.4,3.4,1.2,4.4s2,1.5,3.5,1.5
		c0.7,0,1.3-0.1,1.9-0.2c0.6-0.1,1.3-0.3,2-0.5v2.2c-1.2,0.5-2.6,0.7-4.2,0.7c-2.3,0-4.1-0.7-5.3-2.1c-1.2-1.4-1.9-3.4-1.9-6
		c0-1.6,0.3-3.1,0.9-4.3s1.5-2.2,2.6-2.8c1.1-0.7,2.5-1,4-1c1.6,0,3.1,0.3,4.5,1l-0.9,2.1c-0.5-0.3-1.1-0.5-1.7-0.7
		C65.3,18.9,64.7,18.8,64.1,18.8z"/>
	<path class="st35" d="M80.6,32.6h-2.5v-7.3c0-0.9-0.2-1.6-0.6-2.1c-0.4-0.5-1-0.7-1.8-0.7c-1.1,0-1.8,0.3-2.3,1
		c-0.5,0.6-0.7,1.7-0.7,3.2v5.9h-2.5V15.8h2.5v4.3c0,0.7,0,1.4-0.1,2.2h0.2c0.3-0.6,0.8-1,1.4-1.3c0.6-0.3,1.3-0.5,2.2-0.5
		c2.9,0,4.3,1.5,4.3,4.4V32.6z"/>
	<path class="st35" d="M89.3,20.4c0.5,0,0.9,0,1.3,0.1l-0.2,2.4c-0.4-0.1-0.7-0.1-1.1-0.1c-1,0-1.8,0.3-2.5,1
		c-0.6,0.7-0.9,1.5-0.9,2.6v6.2h-2.5V20.6h2l0.3,2.1h0.1c0.4-0.7,0.9-1.3,1.5-1.7C87.9,20.6,88.5,20.4,89.3,20.4z"/>
	<path class="st35" d="M102.4,26.6c0,2-0.5,3.5-1.5,4.6c-1,1.1-2.4,1.6-4.2,1.6c-1.1,0-2.1-0.3-3-0.8c-0.9-0.5-1.5-1.2-2-2.2
		c-0.5-0.9-0.7-2-0.7-3.3c0-1.9,0.5-3.4,1.5-4.5c1-1.1,2.4-1.6,4.2-1.6c1.7,0,3.1,0.6,4.1,1.7C101.9,23.2,102.4,24.7,102.4,26.6z
		 M93.7,26.6c0,2.8,1,4.1,3.1,4.1c2,0,3-1.4,3-4.1c0-2.7-1-4.1-3-4.1c-1.1,0-1.8,0.4-2.3,1.1C93.9,24.3,93.7,25.3,93.7,26.6z"/>
	<path class="st35" d="M114.4,32.6h-2.5v-7.4c0-0.9-0.2-1.6-0.5-2c-0.3-0.4-0.9-0.7-1.6-0.7c-1,0-1.7,0.3-2.2,1
		c-0.5,0.6-0.7,1.7-0.7,3.2v5.9h-2.5V20.6h2l0.4,1.6h0.1c0.3-0.6,0.8-1,1.4-1.3c0.6-0.3,1.3-0.5,2.1-0.5c1.8,0,3.1,0.6,3.6,1.9h0.2
		c0.4-0.6,0.8-1.1,1.5-1.4c0.6-0.3,1.4-0.5,2.2-0.5c1.4,0,2.5,0.4,3.1,1.1c0.7,0.7,1,1.8,1,3.3v7.8h-2.5v-7.4c0-0.9-0.2-1.6-0.5-2
		c-0.3-0.4-0.9-0.7-1.6-0.7c-1,0-1.7,0.3-2.2,0.9c-0.5,0.6-0.7,1.6-0.7,2.8V32.6z"/>
	<path class="st35" d="M129.7,32.8c-1.9,0-3.3-0.5-4.4-1.6c-1-1.1-1.6-2.6-1.6-4.5c0-1.9,0.5-3.5,1.5-4.6c1-1.1,2.3-1.7,4-1.7
		c1.6,0,2.8,0.5,3.7,1.4c0.9,1,1.4,2.3,1.4,3.9v1.4h-8c0,1.2,0.3,2,0.9,2.7c0.6,0.6,1.4,0.9,2.5,0.9c0.7,0,1.4-0.1,2-0.2
		c0.6-0.1,1.3-0.4,2-0.7V32c-0.6,0.3-1.2,0.5-1.9,0.6C131.3,32.7,130.6,32.8,129.7,32.8z M129.3,22.4c-0.8,0-1.5,0.3-1.9,0.8
		c-0.5,0.5-0.8,1.3-0.9,2.2h5.4c0-1-0.3-1.7-0.7-2.2C130.7,22.6,130.1,22.4,129.3,22.4z"/>
</g>
</svg>
