<?xml version="1.0" encoding="utf-8"?>
<!-- Generator: Adobe Illustrator 22.1.0, SVG Export Plug-In . SVG Version: 6.00 Build 0)  -->
<svg version="1.1"
	 id="svg2" inkscape:version="0.48.3.1 r9886" sodipodi:docname="Microsoft-Office-2013-lineup.svg" xmlns:cc="http://creativecommons.org/ns#" xmlns:dc="http://purl.org/dc/elements/1.1/" xmlns:inkscape="http://www.inkscape.org/namespaces/inkscape" xmlns:rdf="http://www.w3.org/1999/02/22-rdf-syntax-ns#" xmlns:sodipodi="http://sodipodi.sourceforge.net/DTD/sodipodi-0.dtd" xmlns:svg="http://www.w3.org/2000/svg"
	 xmlns="http://www.w3.org/2000/svg" xmlns:xlink="http://www.w3.org/1999/xlink" x="0px" y="0px" viewBox="0 0 110 110"
	 style="enable-background:new 0 0 110 110;" xml:space="preserve">
<style type="text/css">
	.st0{fill:#FFFFFF;}
</style>
<sodipodi:namedview  bordercolor="#666666" borderopacity="1" fit-margin-bottom="0" fit-margin-left="0" fit-margin-right="0" fit-margin-top="0" gridtolerance="10" guidetolerance="10" id="namedview122" inkscape:current-layer="svg2" inkscape:cx="321.51598" inkscape:cy="53.75" inkscape:pageopacity="0" inkscape:pageshadow="2" inkscape:window-height="960" inkscape:window-maximized="1" inkscape:window-width="1280" inkscape:window-x="0" inkscape:window-y="0" inkscape:zoom="1.0905983" objecttolerance="10" pagecolor="#ffffff" showgrid="false">
	</sodipodi:namedview>
<image style="overflow:visible;" width="1920" height="1080" xlink:href="33FDFEF8.jpg"  transform="matrix(1 0 0 1 -2162.4363 -413.5034)">
</image>
<g>
	<path class="st0" d="M54.4,85.6c-0.8,0-1.5,0.1-2.3,0.1c-20.6,0-37.3-16.7-37.3-37.3c0-20.6,16.7-37.3,37.3-37.3
		c20.6,0,37.3,16.7,37.3,37.3c0,6.8-1.9,13.3-5.1,18.8l2.5,2c3.7-6.1,5.8-13.2,5.8-20.8c0-22.3-18.1-40.5-40.5-40.5
		c-22.3,0-40.5,18.1-40.5,40.5c0,22.3,18.1,40.5,40.5,40.5c1,0,1.9,0,2.9-0.1L54.4,85.6z"/>
	<path class="st0" d="M52.1,72.6c-13.3,0-24.2-10.9-24.2-24.3c0-13.4,10.9-24.3,24.3-24.3c13.4,0,24.3,10.9,24.3,24.3
		c0,3.7-0.8,7.2-2.3,10.3l2.5,2.1c1.9-3.7,3-7.9,3-12.3C79.5,33.3,67.2,21,52.1,21C37,21,24.7,33.3,24.7,48.4
		c0,15.1,12.3,27.4,27.4,27.4c0.2,0,0.3,0,0.5,0L52.1,72.6z"/>
	<path class="st0" d="M94.8,79.9L54.1,46.2c-0.7-0.5-1.6-0.6-2.3-0.2c-0.7,0.4-1.1,1.3-1,2.1l9.5,52.4c0.2,0.9,0.8,1.5,1.7,1.7
		l0.6,0c0.6-0.1,1.2-0.5,1.5-1.1L71,87.4l9.5,16.7c1.2,2.2,3.9,2.9,6.1,1.7c2.1-1.2,2.9-3.9,1.7-6.1l-9.3-16.4l14.6,0.2
		c0.9,0,1.6-0.5,1.9-1.3C95.7,81.3,95.4,80.4,94.8,79.9L94.8,79.9z M71.8,79.1"/>
</g>
</svg>
