<?xml version="1.0" encoding="utf-8"?>
<!-- Generator: Adobe Illustrator 22.1.0, SVG Export Plug-In . SVG Version: 6.00 Build 0)  -->
<svg version="1.1"
	 id="svg2" inkscape:version="0.48.3.1 r9886" sodipodi:docname="word.svg" xmlns:cc="http://creativecommons.org/ns#" xmlns:dc="http://purl.org/dc/elements/1.1/" xmlns:inkscape="http://www.inkscape.org/namespaces/inkscape" xmlns:rdf="http://www.w3.org/1999/02/22-rdf-syntax-ns#" xmlns:sodipodi="http://sodipodi.sourceforge.net/DTD/sodipodi-0.dtd" xmlns:svg="http://www.w3.org/2000/svg"
	 xmlns="http://www.w3.org/2000/svg" xmlns:xlink="http://www.w3.org/1999/xlink" x="0px" y="0px" viewBox="0 0 110 110"
	 style="enable-background:new 0 0 110 110;" xml:space="preserve">
<style type="text/css">
	.st0{fill:#FFFFFF;}
</style>
<sodipodi:namedview  bordercolor="#666666" borderopacity="1" fit-margin-bottom="0" fit-margin-left="0" fit-margin-right="0" fit-margin-top="0" gridtolerance="10" guidetolerance="10" id="namedview122" inkscape:current-layer="svg2" inkscape:cx="344.89442" inkscape:cy="53.75" inkscape:pageopacity="0" inkscape:pageshadow="2" inkscape:window-height="960" inkscape:window-maximized="1" inkscape:window-width="1280" inkscape:window-x="0" inkscape:window-y="0" inkscape:zoom="1.0905983" objecttolerance="10" pagecolor="#ffffff" showgrid="false">
	</sodipodi:namedview>
<path id="path58" inkscape:connector-curvature="0" class="st0" d="M79.4,23.2c5.7,0,11.4,0,17.1,0c0,2.8,0,5.7,0,8.6
	c-5.7,0-11.4,0-17.1,0C79.4,28.9,79.4,26.1,79.4,23.2z"/>
<path class="st0" d="M108.8,83.2c0-21.2,0-42.4,0-63.7c-0.1-2.1,0.1-4.4-1.2-6.2c-1.8-1.2-4.1-1.1-6.1-1.2c-12.2,0.1-24.5,0-36.7,0
	c0-3.3,0-6.5,0-9.8V0.8C46,4.1,20,9,1.2,12.2c0,28.5,0,57,0,85.6c18.7,3.3,44.9,7.7,63.6,11.1v-1.3c0-3.7,0-7.3,0-11
	c12.7,0,25.4,0,38,0c2-0.1,5.1-0.1,5.6-2.7C109.1,90.4,108.7,86.7,108.8,83.2z M37.2,74.1c-2.1-5.1-4.6-10-6.1-15.4
	c-1.7,5-4,9.6-5.9,14.5c-2.7,0-5.4-0.1-8-0.3c3.1-6.1,6.2-12.3,9.4-18.5c-2.8-6.3-5.8-12.5-8.6-18.7c2.7-0.2,5.4-0.3,8.1-0.5
	c1.8,4.8,3.8,9.5,5.3,14.4c1.6-5.2,4-10.1,6.1-15.1c2.8-0.2,5.5-0.4,8.3-0.5c-3.3,6.7-6.5,13.4-9.9,20C39.2,61,42.6,67.8,46,74.7
	C43.1,74.5,40.1,74.3,37.2,74.1z M105.1,92.9c-13.4,0-26.9,0-40.3,0c0-2.4,0-4.9,0-7.3c3.3,0,6.5,0,9.8,0c0-2.8,0-5.7,0-8.6
	c-3.3,0-6.5,0-9.8,0c0-1.6,0-3.3,0-4.9c3.3,0,6.5,0,9.8,0c0-2.8,0-5.7,0-8.6c-3.3,0-6.5,0-9.8,0c0-1.6,0-3.3,0-4.9
	c3.3,0,6.5,0,9.8,0c0-2.8,0-5.7,0-8.6c-3.3,0-6.5,0-9.8,0c0-1.6,0-3.3,0-4.9c3.3,0,6.5,0,9.8,0c0-2.8,0-5.7,0-8.6
	c-3.3,0-6.5,0-9.8,0c0-1.6,0-3.3,0-4.9c3.3,0,6.5,0,9.8,0c0-2.8,0-5.7,0-8.6c-3.3,0-6.5,0-9.8,0c0-2.4,0-4.9,0-7.3
	c13.4,0,26.9,0,40.3,0C105.1,41.5,105.1,67.2,105.1,92.9z"/>
<path id="path90" inkscape:connector-curvature="0" class="st0" d="M79.4,36.7c5.7,0,11.4,0,17.1,0c0,2.8,0,5.7,0,8.6
	c-5.7,0-11.4,0-17.1,0C79.4,42.4,79.4,39.5,79.4,36.7z"/>
<path id="path108" inkscape:connector-curvature="0" class="st0" d="M79.4,50.1c5.7,0,11.4,0,17.1,0c0,2.8,0,5.7,0,8.6
	c-5.7,0-11.4,0-17.1,0C79.4,55.8,79.4,53,79.4,50.1z"/>
<path id="path114" inkscape:connector-curvature="0" class="st0" d="M79.4,63.6c5.7,0,11.4,0,17.1,0c0,2.8,0,5.7,0,8.6
	c-5.7,0-11.4,0-17.1,0C79.4,69.3,79.4,66.4,79.4,63.6z"/>
<path id="path120" inkscape:connector-curvature="0" class="st0" d="M79.4,77c5.7,0,11.4,0,17.1,0c0,2.8,0,5.7,0,8.6
	c-5.7,0-11.4,0-17.1,0C79.4,82.7,79.4,79.9,79.4,77z"/>
</svg>
