<?xml version="1.0" encoding="utf-8"?>
<!-- Generator: Adobe Illustrator 23.0.0, SVG Export Plug-In . SVG Version: 6.00 Build 0)  -->
<svg version="1.1"
	 id="svg2985" inkscape:version="0.48.2 r9819" sodipodi:docname="Prezi_logo_transparent_2012.svg" xmlns:cc="http://creativecommons.org/ns#" xmlns:dc="http://purl.org/dc/elements/1.1/" xmlns:inkscape="http://www.inkscape.org/namespaces/inkscape" xmlns:rdf="http://www.w3.org/1999/02/22-rdf-syntax-ns#" xmlns:sodipodi="http://sodipodi.sourceforge.net/DTD/sodipodi-0.dtd" xmlns:svg="http://www.w3.org/2000/svg"
	 xmlns="http://www.w3.org/2000/svg" xmlns:xlink="http://www.w3.org/1999/xlink" x="0px" y="0px" viewBox="0 0 110 110"
	 style="enable-background:new 0 0 110 110;" xml:space="preserve">
<style type="text/css">
	.st0{fill:#FFFFFF;}
</style>
<sodipodi:namedview  bordercolor="#666666" borderopacity="1" fit-margin-bottom="2" fit-margin-left="2" fit-margin-right="2" fit-margin-top="2" gridtolerance="10" guidetolerance="10" id="namedview2987" inkscape:current-layer="svg2985" inkscape:cx="248.06306" inkscape:cy="86.380123" inkscape:pageopacity="0" inkscape:pageshadow="2" inkscape:window-height="706" inkscape:window-maximized="1" inkscape:window-width="1366" inkscape:window-x="-8" inkscape:window-y="-8" inkscape:zoom="0.417193" objecttolerance="10" pagecolor="#ffffff" showgrid="false">
	</sodipodi:namedview>
<g id="g3216">
	<g id="g5003" transform="matrix(1.209863,0,0,1.209863,127.98294,49.400268)">
		<path id="path3854" inkscape:connector-curvature="0" sodipodi:nodetypes="ssssssssss" class="st0" d="M-81.5,4.5
			c-0.2,11.7,9.8,21.5,21.5,21.5s21.2-9.8,21.2-21.5S-48.4-16.7-60-16.7C-75.5-16.7-81.4-4.1-81.5,4.5L-81.5,4.5z M-60-14.4
			c10.4,0,18.6,8.5,18.6,18.9S-49.6,23.2-60,23.2s-18.8-8.3-18.8-18.7S-70.4-14.4-60-14.4z"/>
		<path id="path3857" inkscape:connector-curvature="0" sodipodi:nodetypes="szszssssss" class="st0" d="M-86.8,4.5
			c0,15.1,12.7,26.4,26.7,26.4s26.4-11.6,26.4-26.4S-46.1-22.1-60-22.1S-86.8-11.3-86.8,4.5L-86.8,4.5z M-60-19.7
			c12.1,0,23.8,10.4,23.8,24.2c0,13.9-10.7,23.9-23.8,23.9c-13.8,0-24-10.6-24-23.9C-84-9.4-73.2-19.7-60-19.7L-60-19.7z"/>
		<path id="path3859" inkscape:connector-curvature="0" sodipodi:nodetypes="szszssssss" class="st0" d="M-91.9,4.5
			c0,18.3,14.9,31.7,31.9,31.7s31.7-13.8,31.7-31.7S-43.1-27.4-60-27.4S-91.9-14.4-91.9,4.5L-91.9,4.5z M-60-24.7
			c15.4,0,29,12.6,29,29.2c0,16.7-13.5,29.2-29.4,29.2c-15.8,0-29.1-13.1-29.1-29.2C-89.5-12.2-75.9-24.7-60-24.7L-60-24.7z"/>
	</g>
	<g id="g5008" transform="matrix(1.209863,0,0,1.209863,127.98294,49.400268)">
		<path id="path3819" inkscape:connector-curvature="0" class="st0" d="M-61.7-10.9h3.4v30.7h-3.4V-10.9z"/>
		<path id="path3821" inkscape:connector-curvature="0" sodipodi:nodetypes="ccccc" class="st0" d="M-68.7-8.5
			c1.3-1.1,3.4-1.6,3.4-1.6v29c-1.9-0.5-3.3-1.6-3.3-1.6L-68.7-8.5z"/>
		<path id="path3834" inkscape:connector-curvature="0" sodipodi:nodetypes="ccccc" class="st0" d="M-51.3-8.6
			c-1.3-1.1-3.4-1.6-3.4-1.6v29c1.9-0.5,3.3-1.6,3.3-1.6L-51.3-8.6z"/>
		<path id="path3836" inkscape:connector-curvature="0" sodipodi:nodetypes="ccsc" class="st0" d="M-72.4-5v18.7c0,0-3.1-3-3.1-9.3
			S-72.4-5-72.4-5z"/>
		<path id="path3838" inkscape:connector-curvature="0" sodipodi:nodetypes="ccsc" class="st0" d="M-47.8-5.1v18.7
			c0,0,3.1-3,3.1-9.3S-47.8-5.1-47.8-5.1z"/>
	</g>
	<g id="g3386" transform="matrix(1.2082628,-0.06220601,0.06220601,1.2082628,114.47815,63.765565)">
		
			<path id="path4983" inkscape:connector-curvature="0" inkscape:transform-center-x="-76.646795" inkscape:transform-center-y="-170.68128" sodipodi:nodetypes="ccccc" class="st0" d="
			M-31.1-40.5l4.9-8.3l-4-2.2l-4,8.8L-31.1-40.5z"/>
		
			<path id="path3039" inkscape:connector-curvature="0" inkscape:transform-center-x="-39.570879" inkscape:transform-center-y="-182.47866" sodipodi:nodetypes="ccccc" class="st0" d="
			M-37.9-43.5l3-9.1l-4.4-1.3l-2.1,9.5L-37.9-43.5z"/>
		
			<path id="path3041" inkscape:connector-curvature="0" inkscape:transform-center-x="-0.58421047" inkscape:transform-center-y="-186.24389" sodipodi:nodetypes="ccccc" class="st0" d="
			M-45-45l1.1-9.5l-4.6-0.4l-0.1,9.7L-45-45z"/>
		
			<path id="path3043" inkscape:connector-curvature="0" inkscape:transform-center-x="39.859278" inkscape:transform-center-y="-182.25816" sodipodi:nodetypes="ccccc" class="st0" d="
			M-52.4-45l-0.9-9.6l-4.5,0.6l1.9,9.5L-52.4-45z"/>
		
			<path id="path3045" inkscape:connector-curvature="0" inkscape:transform-center-x="77.005702" inkscape:transform-center-y="-170.39675" sodipodi:nodetypes="ccccc" class="st0" d="
			M-59.6-43.4l-2.9-9.2l-4.3,1.5l3.9,8.9L-59.6-43.4z"/>
		
			<path id="path3047" inkscape:connector-curvature="0" inkscape:transform-center-x="110.70331" inkscape:transform-center-y="-151.0419" sodipodi:nodetypes="ccccc" class="st0" d="
			M-66.4-40.3l-4.7-8.4l-3.9,2.4l5.6,7.9L-66.4-40.3z"/>
		
			<path id="path3049" inkscape:connector-curvature="0" inkscape:transform-center-x="139.00542" inkscape:transform-center-y="-125.61212" sodipodi:nodetypes="ccccc" class="st0" d="
			M-72.2-36l-6.4-7.2l-3.3,3.1l7.1,6.5L-72.2-36z"/>
		
			<path id="path3051" inkscape:connector-curvature="0" inkscape:transform-center-x="161.89263" inkscape:transform-center-y="-94.059486" sodipodi:nodetypes="ccccc" class="st0" d="
			M-77.2-30.5l-7.7-5.7l-2.6,3.8l8.3,4.9L-77.2-30.5z"/>
		
			<path id="path3053" inkscape:connector-curvature="0" inkscape:transform-center-x="177.33293" inkscape:transform-center-y="-59.140913" sodipodi:nodetypes="ccccc" class="st0" d="
			M-80.8-24.2l-8.7-4l-1.8,4.2l9.2,3.1L-80.8-24.2z"/>
		
			<path id="path3055" inkscape:connector-curvature="0" inkscape:transform-center-x="185.30865" inkscape:transform-center-y="-21.016554" sodipodi:nodetypes="ccccc" class="st0" d="
			M-83.1-17.1l-9.4-2.1l-0.9,4.5l9.6,1.1L-83.1-17.1z"/>
		
			<path id="path3057" inkscape:connector-curvature="0" inkscape:transform-center-x="185.27175" inkscape:transform-center-y="19.648468" sodipodi:nodetypes="ccccc" class="st0" d="
			M-83.9-9.9l-9.6-0.1l0.1,4.6l9.6-0.9L-83.9-9.9z"/>
		
			<path id="path3059" inkscape:connector-curvature="0" inkscape:transform-center-x="177.54339" inkscape:transform-center-y="58.019379" sodipodi:nodetypes="ccccc" class="st0" d="
			M-83.1-2.5l-9.4,1.9l1,4.5l9.2-2.9L-83.1-2.5z"/>
		
			<path id="path3061" inkscape:connector-curvature="0" inkscape:transform-center-x="161.98088" inkscape:transform-center-y="93.729523" sodipodi:nodetypes="ccccc" class="st0" d="
			M-80.8,4.5l-8.8,3.8l1.9,4.2l8.4-4.8L-80.8,4.5z"/>
		
			<path id="path3063" inkscape:connector-curvature="0" inkscape:transform-center-x="139.30133" inkscape:transform-center-y="125.25579" sodipodi:nodetypes="ccccc" class="st0" d="
			M-77.1,10.9l-7.8,5.6l2.8,3.7l7.2-6.4L-77.1,10.9z"/>
		
			<path id="path3065" inkscape:connector-curvature="0" inkscape:transform-center-x="111.11416" inkscape:transform-center-y="150.80729" sodipodi:nodetypes="ccccc" class="st0" d="
			M-72.2,16.3l-6.5,7l3.5,3l5.8-7.8L-72.2,16.3z"/>
		
			<path id="path3067" inkscape:connector-curvature="0" inkscape:transform-center-x="77.373572" inkscape:transform-center-y="170.35992" sodipodi:nodetypes="ccccc" class="st0" d="
			M-66.2,20.7l-4.9,8.3l4,2.2l4-8.8L-66.2,20.7z"/>
		
			<path id="path3069" inkscape:connector-curvature="0" inkscape:transform-center-x="40.006302" inkscape:transform-center-y="182.38886" sodipodi:nodetypes="ccccc" class="st0" d="
			M-59.4,23.7l-3.1,9.1l4.4,1.3l2.1-9.4L-59.4,23.7z"/>
		
			<path id="path3071" inkscape:connector-curvature="0" inkscape:transform-center-x="0.20776088" inkscape:transform-center-y="186.24205" sodipodi:nodetypes="ccccc" class="st0" d="
			M-52.1,25.2l-1.1,9.5l4.6,0.4l0.1-9.7L-52.1,25.2z"/>
		
			<path id="path3073" inkscape:connector-curvature="0" inkscape:transform-center-x="-39.270245" inkscape:transform-center-y="182.37853" sodipodi:nodetypes="ccccc" class="st0" d="
			M-44.9,25.2l0.9,9.6l4.5-0.6l-1.9-9.5L-44.9,25.2z"/>
		
			<path id="path3075" inkscape:connector-curvature="0" inkscape:transform-center-x="-76.546011" inkscape:transform-center-y="170.59865" sodipodi:nodetypes="ccccc" class="st0" d="
			M-37.6,23.6l2.9,9.2l4.3-1.5l-3.9-8.9L-37.6,23.6z"/>
		
			<path id="path3077" inkscape:connector-curvature="0" inkscape:transform-center-x="-110.34421" inkscape:transform-center-y="151.30178" sodipodi:nodetypes="ccccc" class="st0" d="
			M-30.8,20.6l4.7,8.4l3.9-2.4l-5.6-7.9L-30.8,20.6z"/>
		
			<path id="path3079" inkscape:connector-curvature="0" inkscape:transform-center-x="-139.22899" inkscape:transform-center-y="125.36406" sodipodi:nodetypes="ccccc" class="st0" d="
			M-24.8,16.2l6.4,7.2l3.3-3.1l-7.1-6.5L-24.8,16.2z"/>
		
			<path id="path3081" inkscape:connector-curvature="0" inkscape:transform-center-x="-161.59377" inkscape:transform-center-y="94.57863" sodipodi:nodetypes="ccccc" class="st0" d="
			M-20,10.8l7.7,5.7l2.6-3.8L-18,7.9L-20,10.8z"/>
		
			<path id="path3083" inkscape:connector-curvature="0" inkscape:transform-center-x="-177.40972" inkscape:transform-center-y="58.902433" sodipodi:nodetypes="ccccc" class="st0" d="
			M-16.3,4.4l8.7,4l1.8-4.2L-15,1.1L-16.3,4.4z"/>
		
			<path id="path3089" inkscape:connector-curvature="0" inkscape:transform-center-x="-185.36108" inkscape:transform-center-y="20.489335" sodipodi:nodetypes="ccccc" class="st0" d="
			M-14-2.7l9.4,2.1l0.8-4.5l-9.6-1.1L-14-2.7z"/>
		
			<path id="path3091" inkscape:connector-curvature="0" inkscape:transform-center-x="-185.12979" inkscape:transform-center-y="-21.1097" sodipodi:nodetypes="ccccc" class="st0" d="
			M-13.3-10.1l9.6,0.1l-0.1-4.6l-9.6,1L-13.3-10.1z"/>
		
			<path id="path3093" inkscape:connector-curvature="0" inkscape:transform-center-x="-177.12835" inkscape:transform-center-y="-59.321377" sodipodi:nodetypes="ccccc" class="st0" d="
			M-14.1-17.5l9.4-1.9l-1.1-4.5l-9.2,3L-14.1-17.5z"/>
		
			<path id="path3095" inkscape:connector-curvature="0" inkscape:transform-center-x="-161.33109" inkscape:transform-center-y="-94.862158" sodipodi:nodetypes="ccccc" class="st0" d="
			M-16.5-24.5l8.8-3.9l-2-4.1l-8.4,4.8L-16.5-24.5z"/>
		
			<path id="path3097" inkscape:connector-curvature="0" inkscape:transform-center-x="-138.94905" inkscape:transform-center-y="-125.64826" sodipodi:nodetypes="ccccc" class="st0" d="
			M-20.1-30.8l7.8-5.6l-2.8-3.6l-7.2,6.4L-20.1-30.8z"/>
		
			<path id="path3099" inkscape:connector-curvature="0" inkscape:transform-center-x="-109.93261" inkscape:transform-center-y="-151.66526" sodipodi:nodetypes="ccccc" class="st0" d="
			M-25.1-36.3l6.5-7.1l-3.5-3l-5.7,7.8L-25.1-36.3z"/>
	</g>
</g>
</svg>
