<?xml version="1.0" encoding="utf-8"?>
<!-- Generator: Adobe Illustrator 22.1.0, SVG Export Plug-In . SVG Version: 6.00 Build 0)  -->
<svg version="1.1"
	 id="svg2" inkscape:version="0.92.2 (5c3e80d, 2017-08-06)" sodipodi:docname="Microsoft_PowerPoint_2013_logo.svg" xmlns:cc="http://creativecommons.org/ns#" xmlns:dc="http://purl.org/dc/elements/1.1/" xmlns:inkscape="http://www.inkscape.org/namespaces/inkscape" xmlns:rdf="http://www.w3.org/1999/02/22-rdf-syntax-ns#" xmlns:sodipodi="http://sodipodi.sourceforge.net/DTD/sodipodi-0.dtd" xmlns:svg="http://www.w3.org/2000/svg"
	 xmlns="http://www.w3.org/2000/svg" xmlns:xlink="http://www.w3.org/1999/xlink" x="0px" y="0px" viewBox="0 0 110 110"
	 style="enable-background:new 0 0 110 110;" xml:space="preserve">
<style type="text/css">
	.st0{fill:#FFFFFF;}
</style>
<sodipodi:namedview  bordercolor="#666666" borderopacity="1" fit-margin-bottom="0" fit-margin-left="0" fit-margin-right="0" fit-margin-top="0" gridtolerance="10" guidetolerance="10" id="namedview122" inkscape:current-layer="svg2" inkscape:cx="68.378088" inkscape:cy="84.987245" inkscape:pageopacity="0" inkscape:pageshadow="2" inkscape:window-height="706" inkscape:window-maximized="1" inkscape:window-width="1360" inkscape:window-x="-8" inkscape:window-y="-8" inkscape:zoom="4" objecttolerance="10" pagecolor="#ffffff" showgrid="false">
	</sodipodi:namedview>
<g id="g24" transform="translate(161.7363,148.416)">
	<path id="path26" inkscape:connector-curvature="0" class="st0" d="M-85.2-122.3v15.3h14.9C-70.3-115.4-77-122.3-85.2-122.3"/>
</g>
<path class="st0" d="M106.4,12.9H62.9V1.3L0,12.4v85.1l62.9,11.2V94.7h43.5c2,0,3.6-1.7,3.6-3.7V16.6
	C110,14.6,108.4,12.9,106.4,12.9z M40.8,52.5c-1,4.2-3.6,7.2-7.7,8.2c-2.1,0.5-4.3,0.4-6.6,0.6v12h-6.3V37.2c4.9,0,9.7-0.1,14.5,0.1
	c1.3,0.1,2.7,1,3.7,2C41.9,43,41.9,47.8,40.8,52.5z M106.4,90.8H62.9v-9.3h33.9v-4.3H62.9v-7.3h33.9v-4.3H62.9v-12
	c2.7,3.3,6.8,5.4,11.3,5.4c8.2,0,14.9-6.9,14.9-15.3H74.2V28.3c-4.5,0-8.6,2.1-11.3,5.4v-17h43.5L106.4,90.8z M32.8,45.2
	c1.3,1.6,1.4,5.2,0.3,7.3c-1.5,2.7-4,2.2-6.5,2V43.8C28.9,43.3,31.1,43,32.8,45.2z"/>
</svg>
