<?xml version="1.0" encoding="utf-8"?>
<!-- Generator: Adobe Illustrator 23.0.0, SVG Export Plug-In . SVG Version: 6.00 Build 0)  -->
<svg version="1.1" id="Capa_1" xmlns="http://www.w3.org/2000/svg" xmlns:xlink="http://www.w3.org/1999/xlink" x="0px" y="0px"
	 viewBox="0 0 928.94 364.24" style="enable-background:new 0 0 928.94 364.24;" xml:space="preserve">
<style type="text/css">
	.st0{fill:#FFFFFF;}
</style>
<path class="st0" d="M358.59,111.83c-0.06-0.35-0.17-0.7-0.31-1.03c-3.89-12.5-9.65-24.28-16.99-34.96
	c-0.01-0.06-0.01-0.13-0.02-0.19c-0.27-1.4-1.17-2.5-2.33-3.12c-2.86-3.9-5.95-7.64-9.24-11.2c-0.26-0.37-0.55-0.69-0.89-0.96
	c-13.65-14.51-30.71-25.96-50.15-32.96c-0.91-0.8-2.09-1.19-3.26-1.12c-5.34-1.76-10.86-3.2-16.52-4.27
	c-0.28-0.1-0.58-0.18-0.88-0.23c-0.14-0.02-0.28-0.01-0.42-0.02c-1.08-0.19-2.16-0.37-3.25-0.54c-7.49-1.14-14.99-1.63-22.41-1.48
	c-1.32-0.63-2.89-0.59-4.2,0.16c-24.89,1.32-48.89,9.83-69.44,24.94c-27.81,20.44-46,50.5-51.21,84.62
	c-3.55,23.27-0.63,46.06,7.41,66.54c-0.06,1.25,0.37,2.53,1.34,3.47c0.03,0.03,0.09,0.08,0.15,0.15c5.13,11.98,12.02,23.11,20.42,33
	c0.27,0.43,0.59,0.81,0.97,1.12c19.4,22.33,46.49,38.18,77.95,42.98c1.03,0.16,2.06,0.28,3.1,0.41c0.19,0.05,0.37,0.12,0.57,0.15
	c0.23,0.04,0.46,0.05,0.69,0.05c0.05,0,0.09-0.01,0.14-0.01c4.35,0.51,8.68,0.78,12.97,0.85c0.12,0.01,0.23,0.03,0.35,0.03
	c0.08,0,0.16-0.01,0.24-0.02c0.51,0.01,1.02,0.03,1.53,0.03c27.58,0,53.71-8.88,75.15-24.25c0.43-0.22,0.83-0.51,1.18-0.86
	c7.27-5.33,13.98-11.42,20.02-18.17c0.33-0.28,0.61-0.59,0.83-0.94c13.6-15.51,23.63-34.42,28.57-55.61
	c0.57-0.91,0.81-1.98,0.67-3.03c0.47-2.27,0.89-4.56,1.25-6.88C365.57,148.89,363.97,129.64,358.59,111.83z M254.61,267.47
	c3.55-2.47,7.38-5.46,11.33-9.06c3.25-2.96,6.72-6.48,10.25-10.63c12.34-0.54,22.46-2.05,30.47-3.86c-0.6,0.86-1.2,1.72-1.82,2.58
	C290.09,257.12,272.94,264.4,254.61,267.47z M224.9,268.7l3.59-23.48c13.08,1.81,24.78,2.63,35.2,2.76
	c-1.18,1.19-2.34,2.31-3.47,3.36c-13.18,12.15-24.99,16.79-27.75,17.76C229.95,269.04,227.43,268.91,224.9,268.7z M207.32,265.92
	c-2.73-2.77-12.05-12.85-20.99-29.75c9.94,2.98,20.99,5.62,33.16,7.67l-3.63,23.76C212.98,267.14,210.13,266.58,207.32,265.92z
	 M123.44,194.1c-6.5-15.97-9.46-33.16-8.63-50.59c1.7,1.83,3.72,3.87,6.06,6.07c-0.9,13.96-0.24,29.05,2.94,44.84
	C123.67,194.3,123.56,194.2,123.44,194.1z M261.08,31.74c4.1,0.91,8.13,2.02,12.08,3.34c3.22,4.57,13.04,19.52,20.81,41.92
	c-14.63,0.56-27.81-0.22-39.52-1.81L261.08,31.74z M284.62,86.29c3.96,0,8.04-0.1,12.22-0.3c3.3,11.29,5.91,24.11,6.96,38.16
	c-15.4,2.18-34.41,2.79-56.79-0.21l6.07-39.78C262.67,85.49,273.17,86.29,284.62,86.29z M353.59,167.11
	c-0.34,2.2-0.73,4.37-1.18,6.53c-1.48,1.05-4.11,2.77-7.95,4.77c4.26-21.52,4.09-41.05,2.34-56.74c1.74-0.8,3.26-1.54,4.54-2.21
	C355.24,134.82,356.05,150.96,353.59,167.11z M229.86,236.22l5.6-36.7c13.92,1.93,26.56,2.75,37.96,2.75
	c6.86,0,13.25-0.3,19.23-0.82c-6.02,15.92-13.49,28.12-20.82,37.33C259.94,239.09,245.98,238.44,229.86,236.22z M167.6,152.31
	c0.49-15.05,3.46-29.13,7.89-42.02c15.51,8.72,35.71,16.86,61.15,21.28l-8.79,57.58c-24.25-4.14-44.07-11.11-59.94-18.85
	C167.52,164.54,167.39,158.55,167.6,152.31z M300.75,172.97c-1.36,6.79-3,13.1-4.83,18.97c-16.03,1.76-35.62,1.83-59.08-1.4
	l8.79-57.58c11.44,1.54,22.02,2.2,31.74,2.2c9.86,0,18.82-0.68,26.88-1.77C304.53,145.8,303.55,159.05,300.75,172.97z
	 M302.73,200.32c11.25-1.57,20.69-3.93,28.47-6.5c-3.84,12.52-9.39,25.52-17.18,38.66c-6.93,2.18-16.98,4.51-30.37,5.66
	C290.58,228.27,297.33,215.83,302.73,200.32z M305.82,190.58c1.43-4.99,2.72-10.26,3.84-15.82c3.05-15.16,4.03-29.53,3.64-42.83
	c9.91-1.86,18.18-4.29,24.73-6.69c1.56,16.05,1.3,35.97-3.88,57.78C326.87,185.84,317.48,188.64,305.82,190.58z M345.5,112.14
	c-1.05-6.53-2.35-12.55-3.76-18c2.73,5.3,5.05,10.77,6.95,16.37C347.83,110.98,346.75,111.54,345.5,112.14z M336.86,115.84
	c-6.15,2.35-14.2,4.85-24.07,6.79c-1.09-13.91-3.6-26.45-6.62-37.27c7.23-0.6,14.76-1.52,22.59-2.8
	C331.68,91.03,334.86,102.4,336.86,115.84z M238.01,122.58c-24.77-4.34-44.35-12.48-59.22-21.06c5.17-12.63,11.62-23.95,18.25-33.71
	c3.71,1.78,7.77,3.55,12.17,5.26c9.35,3.62,21.02,7.17,34.89,9.68L238.01,122.58z M176.05,44.18c12.56-7.08,26.15-11.77,40.21-13.95
	c-6.09,6.06-14.07,14.78-22.19,25.83C185.42,51.33,179.41,46.91,176.05,44.18z M167.9,49.21c2.82,2.51,9.74,8.17,20.91,14.36
	c-6.21,9.29-12.59,20.43-17.89,33.12c-9.65-6.33-16.8-12.55-21.63-17.33c8-16.4,15.81-27.07,17.64-29.48
	C167.25,49.66,167.57,49.43,167.9,49.21z M142.67,72.18c-0.05-0.06-0.09-0.12-0.14-0.17c0.19-0.23,0.39-0.46,0.58-0.68
	C142.97,71.61,142.82,71.89,142.67,72.18z M145.22,88.22c5.36,5.07,12.73,11.18,22.3,17.29c-4.98,14.01-8.46,29.63-9.01,46.5
	c-0.15,4.6-0.13,9.06,0.04,13.4c-12.15-6.8-21.51-13.84-28.38-19.87c1.31-13.85,4.37-27.9,9.19-42.1
	C141.19,98.03,143.18,92.95,145.22,88.22z M129.48,157.06c7.67,6.17,17.51,12.91,29.79,19.26c1.65,17.11,5.51,31.91,10.05,44.2
	c-15.09-6.08-26.47-12.58-34.26-17.74C130.96,187.84,129.1,172.58,129.48,157.06z M168.95,181c15.67,7.06,34.71,13.28,57.52,17.15
	l-5.6,36.69c-15.1-2.56-28.42-6.08-39.97-10.02C175.68,212.71,171.16,198.07,168.95,181z M329.51,222.88
	c5.47-11.29,9.48-22.39,12.33-33.11c2.7-1.18,5.1-2.34,7.17-3.43C344.61,199.81,337.94,212.11,329.51,222.88z M322.22,66.52
	c0.49,0.97,1.71,3.49,3.29,7.37c-7.66,1.21-15.01,2.04-22.05,2.58c-0.81-2.46-1.64-4.79-2.47-7.01c-4.44-11.85-9.3-21.45-13.3-28.41
	C300.59,47.33,312.27,55.93,322.22,66.52z M252.13,30.1l-6.67,43.66c-12.89-2.35-23.74-5.63-32.47-8.98
	c-3.81-1.46-7.34-2.98-10.6-4.51c12.36-16.59,24.28-27.58,28.67-31.39c1.17-0.03,2.34-0.07,3.52-0.07
	C240.4,28.81,246.26,29.25,252.13,30.1z M136.81,79.4c0.46,0.54,0.98,1.14,1.56,1.79c-2.61,5.78-5.17,12.13-7.52,19
	c-3.66,10.73-6.98,23.43-8.83,37.56c-2.92-3.06-4.89-5.45-5.96-6.83c0-0.03,0.01-0.06,0.01-0.08
	C118.94,112,126.08,94.49,136.81,79.4z M144.14,227.78c-1.73-3.81-3.31-7.64-4.74-11.5c8.93,5.15,20.45,10.79,34.72,15.89
	c1.66,3.63,3.34,6.96,4.98,9.97c4.17,7.66,8.38,13.93,12.03,18.79C173.07,253.92,157,242.62,144.14,227.78z"/>
<g>
	<path class="st0" d="M583.72,146.52c0,15.62-1.84,29.69-5.52,42.23c-3.68,12.53-9.18,23.2-16.49,32s-16.49,15.57-27.53,20.29
		c-11.04,4.72-23.92,7.09-38.64,7.09c-14.52,0-27.08-2.16-37.67-6.49c-10.59-4.33-19.35-10.62-26.26-18.87
		c-6.91-8.26-12.06-18.5-15.44-30.74c-3.38-12.24-5.07-26.31-5.07-42.23c0-15.22,1.84-29.04,5.52-41.48
		c3.68-12.43,9.2-23,16.56-31.71c7.36-8.7,16.56-15.42,27.6-20.14c11.04-4.72,23.92-7.09,38.64-7.09c14.22,0,26.61,2.14,37.15,6.42
		c10.54,4.28,19.32,10.52,26.34,18.73s12.23,18.35,15.67,30.44C582.01,117.05,583.72,130.9,583.72,146.52z M556.57,148.31
		c0-10.94-0.97-21.11-2.91-30.51s-5.17-17.55-9.69-24.47c-4.52-6.91-10.56-12.31-18.1-16.19c-7.55-3.88-16.89-5.82-28.01-5.82
		c-11.13,0-20.47,2.09-28.02,6.27c-7.55,4.18-13.69,9.75-18.4,16.71c-4.72,6.96-8.1,15.1-10.13,24.4
		c-2.04,9.3-3.05,19.08-3.05,29.32c0,11.34,0.94,21.78,2.83,31.33c1.89,9.55,5.07,17.78,9.54,24.69
		c4.47,6.92,10.46,12.29,17.96,16.11c7.5,3.83,16.91,5.74,28.24,5.74c11.23,0,20.66-2.09,28.31-6.27
		c7.65-4.18,13.81-9.82,18.48-16.94c4.67-7.11,8-15.34,9.98-24.69C555.57,168.65,556.57,158.75,556.57,148.31z"/>
	<path class="st0" d="M643.86,241.41c0,0.8-0.2,1.49-0.6,2.09c-0.4,0.6-1.1,1.07-2.09,1.42c-1,0.35-2.31,0.65-3.95,0.9
		c-1.64,0.25-3.71,0.37-6.19,0.37c-2.39,0-4.43-0.13-6.12-0.37c-1.69-0.25-3.04-0.55-4.03-0.9c-1-0.35-1.69-0.82-2.09-1.42
		c-0.4-0.6-0.6-1.29-0.6-2.09V56.1c0-0.8,0.22-1.49,0.67-2.09s1.19-1.07,2.24-1.42c1.04-0.35,2.39-0.65,4.03-0.9
		c1.64-0.25,3.6-0.37,5.89-0.37c2.49,0,4.55,0.13,6.19,0.37c1.64,0.25,2.96,0.55,3.95,0.9c0.99,0.35,1.69,0.82,2.09,1.42
		c0.4,0.6,0.6,1.29,0.6,2.09V241.41z"/>
	<path class="st0" d="M817.99,217.99c0,1.59-0.05,2.98-0.15,4.18c-0.1,1.19-0.27,2.24-0.52,3.13c-0.25,0.9-0.57,1.69-0.97,2.39
		c-0.4,0.7-1.1,1.54-2.09,2.54c-1,1-3.08,2.51-6.27,4.55c-3.18,2.04-7.14,4.03-11.86,5.97c-4.73,1.94-10.15,3.58-16.26,4.92
		c-6.12,1.34-12.81,2.01-20.07,2.01c-12.53,0-23.85-2.09-33.94-6.27c-10.1-4.18-18.7-10.34-25.81-18.5
		c-7.11-8.15-12.58-18.23-16.41-30.21c-3.83-11.99-5.74-25.79-5.74-41.41c0-16.01,2.06-30.29,6.19-42.82
		c4.13-12.53,9.92-23.15,17.38-31.86c7.46-8.7,16.39-15.34,26.78-19.92c10.39-4.57,21.91-6.86,34.54-6.86
		c5.57,0,10.99,0.52,16.26,1.57c5.27,1.04,10.15,2.36,14.62,3.95c4.48,1.59,8.45,3.43,11.94,5.52c3.48,2.09,5.89,3.8,7.24,5.15
		c1.34,1.34,2.21,2.36,2.61,3.06c0.4,0.7,0.72,1.52,0.97,2.46c0.25,0.95,0.45,2.07,0.6,3.36c0.15,1.29,0.22,2.83,0.22,4.63
		c0,1.99-0.1,3.68-0.3,5.07c-0.2,1.39-0.5,2.56-0.9,3.51c-0.4,0.95-0.87,1.64-1.42,2.09c-0.55,0.45-1.23,0.67-2.03,0.67
		c-1.4,0-3.35-0.97-5.85-2.91c-2.5-1.94-5.73-4.08-9.68-6.42c-3.95-2.34-8.75-4.48-14.4-6.42c-5.65-1.94-12.43-2.91-20.32-2.91
		c-8.6,0-16.43,1.72-23.48,5.15c-7.05,3.43-13.08,8.48-18.08,15.14c-5,6.67-8.88,14.8-11.63,24.4c-2.75,9.6-4.12,20.57-4.12,32.9
		c0,12.24,1.32,23.05,3.98,32.45c2.65,9.4,6.45,17.26,11.4,23.57c4.95,6.32,11.02,11.09,18.22,14.32c7.2,3.23,15.35,4.85,24.45,4.85
		c7.7,0,14.42-0.94,20.17-2.83c5.75-1.89,10.65-4,14.7-6.34c4.05-2.34,7.38-4.45,9.98-6.34c2.6-1.89,4.65-2.83,6.15-2.83
		c0.7,0,1.3,0.15,1.8,0.45s0.9,0.87,1.2,1.72c0.3,0.85,0.52,2.01,0.67,3.51C817.91,213.81,817.99,215.7,817.99,217.99z"/>
</g>
<g>
	<path class="st0" d="M48.38,334.26c0,0.47-0.01,0.88-0.04,1.21s-0.07,0.62-0.13,0.85c-0.06,0.24-0.13,0.44-0.23,0.61
		c-0.1,0.17-0.25,0.37-0.46,0.58c-0.21,0.22-0.61,0.5-1.21,0.84c-0.6,0.34-1.33,0.67-2.19,0.98c-0.86,0.31-1.85,0.57-2.96,0.78
		s-2.31,0.31-3.59,0.31c-2.52,0-4.79-0.39-6.82-1.17s-3.75-1.94-5.17-3.48c-1.42-1.54-2.51-3.47-3.27-5.78
		c-0.76-2.31-1.14-5-1.14-8.07c0-3.13,0.42-5.9,1.25-8.33c0.83-2.43,2-4.46,3.5-6.11s3.29-2.9,5.39-3.75
		c2.09-0.85,4.4-1.28,6.92-1.28c1.02,0,2.01,0.09,2.96,0.26c0.95,0.17,1.82,0.39,2.63,0.67c0.8,0.27,1.53,0.59,2.17,0.95
		s1.09,0.67,1.35,0.92c0.26,0.26,0.43,0.47,0.53,0.64c0.09,0.17,0.17,0.39,0.23,0.65c0.06,0.27,0.1,0.58,0.13,0.94
		c0.03,0.36,0.04,0.81,0.04,1.34c0,0.57-0.02,1.05-0.06,1.45s-0.1,0.72-0.2,0.97c-0.1,0.25-0.21,0.43-0.34,0.54
		c-0.13,0.11-0.28,0.17-0.45,0.17c-0.28,0-0.64-0.17-1.08-0.5c-0.44-0.33-1-0.7-1.69-1.11c-0.69-0.41-1.52-0.78-2.47-1.11
		c-0.96-0.33-2.1-0.5-3.42-0.5c-1.46,0-2.76,0.3-3.91,0.9s-2.12,1.45-2.93,2.56c-0.81,1.11-1.42,2.45-1.83,4.02
		c-0.42,1.57-0.63,3.34-0.63,5.31c0,2.16,0.22,4.03,0.67,5.61c0.45,1.58,1.08,2.88,1.9,3.91c0.82,1.02,1.82,1.79,2.98,2.29
		c1.17,0.5,2.48,0.75,3.94,0.75c1.33,0,2.47-0.16,3.44-0.47s1.79-0.66,2.49-1.04c0.69-0.38,1.26-0.72,1.71-1.02
		c0.44-0.3,0.79-0.45,1.04-0.45c0.19,0,0.34,0.04,0.46,0.11s0.21,0.23,0.28,0.45c0.08,0.23,0.13,0.54,0.17,0.95
		C48.36,333.03,48.38,333.58,48.38,334.26z"/>
	<path class="st0" d="M73.18,338.95c0,0.27-0.1,0.47-0.28,0.63c-0.19,0.15-0.49,0.26-0.9,0.33c-0.41,0.07-1.01,0.1-1.8,0.1
		c-0.85,0-1.47-0.03-1.86-0.1c-0.39-0.07-0.66-0.18-0.82-0.33c-0.16-0.15-0.24-0.36-0.24-0.63v-2.02c-1.04,1.12-2.23,1.99-3.57,2.61
		c-1.34,0.63-2.82,0.94-4.45,0.94c-1.35,0-2.58-0.18-3.71-0.53c-1.13-0.35-2.1-0.87-2.93-1.56c-0.82-0.69-1.46-1.55-1.92-2.57
		c-0.45-1.02-0.68-2.22-0.68-3.58c0-1.48,0.29-2.76,0.87-3.85c0.58-1.09,1.44-1.99,2.59-2.7s2.57-1.24,4.28-1.58
		c1.71-0.34,3.69-0.51,5.94-0.51h2.47v-1.53c0-0.8-0.08-1.49-0.24-2.09c-0.16-0.6-0.43-1.09-0.8-1.49c-0.37-0.4-0.86-0.69-1.48-0.88
		c-0.62-0.19-1.38-0.28-2.29-0.28c-1.19,0-2.26,0.13-3.2,0.4c-0.94,0.27-1.77,0.56-2.49,0.88s-1.32,0.62-1.8,0.88
		c-0.48,0.27-0.88,0.4-1.18,0.4c-0.21,0-0.39-0.07-0.55-0.2c-0.16-0.13-0.29-0.32-0.4-0.57c-0.1-0.25-0.18-0.55-0.24-0.91
		c-0.06-0.36-0.08-0.76-0.08-1.19c0-0.59,0.05-1.05,0.14-1.39c0.09-0.34,0.27-0.65,0.54-0.92c0.26-0.27,0.73-0.58,1.39-0.91
		c0.66-0.33,1.44-0.64,2.33-0.92s1.86-0.52,2.91-0.7c1.05-0.18,2.14-0.27,3.25-0.27c1.99,0,3.69,0.19,5.1,0.58
		c1.41,0.39,2.57,0.99,3.48,1.79c0.91,0.81,1.57,1.84,1.99,3.11c0.42,1.27,0.63,2.78,0.63,4.52V338.95z M66.16,328.09h-2.73
		c-1.16,0-2.14,0.09-2.96,0.26c-0.81,0.17-1.48,0.43-1.99,0.77c-0.51,0.34-0.89,0.75-1.12,1.24c-0.24,0.48-0.36,1.04-0.36,1.66
		c0,1.06,0.34,1.89,1.01,2.5c0.67,0.61,1.61,0.91,2.8,0.91c1,0,1.93-0.26,2.77-0.77c0.84-0.51,1.7-1.26,2.57-2.25V328.09z"/>
	<path class="st0" d="M104.09,325.82c0,2.25-0.24,4.29-0.72,6.1c-0.48,1.81-1.19,3.35-2.12,4.62c-0.93,1.27-2.08,2.25-3.47,2.93
		s-2.97,1.02-4.75,1.02c-0.74,0-1.42-0.07-2.03-0.21c-0.62-0.14-1.21-0.36-1.79-0.65c-0.58-0.29-1.15-0.66-1.72-1.09
		s-1.16-0.95-1.76-1.54v11.94c0,0.19-0.06,0.36-0.17,0.51c-0.11,0.15-0.31,0.28-0.58,0.38c-0.27,0.1-0.64,0.18-1.09,0.24
		c-0.45,0.06-1.03,0.08-1.73,0.08c-0.7,0-1.28-0.03-1.73-0.08c-0.45-0.06-0.82-0.14-1.09-0.24c-0.27-0.1-0.47-0.23-0.58-0.38
		c-0.11-0.15-0.17-0.32-0.17-0.51v-35.41c0-0.19,0.05-0.35,0.14-0.5c0.09-0.14,0.26-0.26,0.5-0.36c0.24-0.09,0.55-0.17,0.94-0.21
		c0.39-0.05,0.88-0.07,1.46-0.07c0.57,0,1.05,0.02,1.44,0.07c0.39,0.05,0.7,0.12,0.94,0.21c0.24,0.1,0.4,0.21,0.5,0.36
		s0.14,0.31,0.14,0.5v2.98c0.74-0.76,1.46-1.43,2.17-2c0.71-0.58,1.44-1.06,2.17-1.45c0.74-0.39,1.5-0.68,2.29-0.87
		c0.79-0.19,1.62-0.28,2.52-0.28c1.86,0,3.44,0.37,4.75,1.09c1.31,0.73,2.37,1.73,3.2,3c0.82,1.27,1.43,2.75,1.8,4.43
		C103.9,322.11,104.09,323.9,104.09,325.82z M96.64,326.33c0-1.08-0.08-2.12-0.24-3.11c-0.16-0.99-0.44-1.88-0.82-2.66
		c-0.39-0.78-0.9-1.4-1.54-1.86s-1.43-0.7-2.37-0.7c-0.47,0-0.94,0.07-1.41,0.21s-0.94,0.37-1.42,0.7
		c-0.48,0.32-0.98,0.74-1.49,1.25c-0.51,0.51-1.05,1.15-1.62,1.9v8.36c1,1.27,1.96,2.25,2.87,2.94c0.91,0.69,1.86,1.04,2.84,1.04
		c0.93,0,1.72-0.24,2.37-0.71s1.19-1.09,1.61-1.86c0.42-0.77,0.73-1.63,0.92-2.6C96.55,328.26,96.64,327.3,96.64,326.33z"/>
	<path class="st0" d="M129.66,338.95c0,0.27-0.1,0.47-0.28,0.63c-0.19,0.15-0.49,0.26-0.9,0.33c-0.41,0.07-1.01,0.1-1.8,0.1
		c-0.85,0-1.47-0.03-1.86-0.1c-0.39-0.07-0.66-0.18-0.82-0.33c-0.16-0.15-0.24-0.36-0.24-0.63v-2.02c-1.04,1.12-2.23,1.99-3.57,2.61
		c-1.34,0.63-2.82,0.94-4.45,0.94c-1.35,0-2.58-0.18-3.71-0.53c-1.13-0.35-2.1-0.87-2.93-1.56c-0.82-0.69-1.46-1.55-1.92-2.57
		c-0.45-1.02-0.68-2.22-0.68-3.58c0-1.48,0.29-2.76,0.87-3.85c0.58-1.09,1.44-1.99,2.59-2.7s2.57-1.24,4.28-1.58
		c1.71-0.34,3.69-0.51,5.94-0.51h2.47v-1.53c0-0.8-0.08-1.49-0.24-2.09c-0.16-0.6-0.43-1.09-0.8-1.49c-0.37-0.4-0.86-0.69-1.48-0.88
		c-0.62-0.19-1.38-0.28-2.29-0.28c-1.19,0-2.26,0.13-3.2,0.4c-0.94,0.27-1.77,0.56-2.49,0.88s-1.32,0.62-1.8,0.88
		c-0.48,0.27-0.88,0.4-1.18,0.4c-0.21,0-0.39-0.07-0.55-0.2c-0.16-0.13-0.29-0.32-0.4-0.57c-0.1-0.25-0.18-0.55-0.24-0.91
		c-0.06-0.36-0.08-0.76-0.08-1.19c0-0.59,0.05-1.05,0.14-1.39c0.09-0.34,0.27-0.65,0.54-0.92c0.26-0.27,0.73-0.58,1.39-0.91
		c0.66-0.33,1.44-0.64,2.33-0.92s1.86-0.52,2.91-0.7c1.05-0.18,2.14-0.27,3.25-0.27c1.99,0,3.69,0.19,5.1,0.58
		c1.41,0.39,2.57,0.99,3.48,1.79c0.91,0.81,1.57,1.84,1.99,3.11c0.42,1.27,0.63,2.78,0.63,4.52V338.95z M122.64,328.09h-2.73
		c-1.16,0-2.14,0.09-2.96,0.26c-0.81,0.17-1.48,0.43-1.99,0.77c-0.51,0.34-0.89,0.75-1.12,1.24c-0.24,0.48-0.36,1.04-0.36,1.66
		c0,1.06,0.34,1.89,1.01,2.5c0.67,0.61,1.61,0.91,2.8,0.91c1,0,1.93-0.26,2.77-0.77c0.84-0.51,1.7-1.26,2.57-2.25V328.09z"/>
	<path class="st0" d="M154.23,334.83c0,0.49-0.01,0.9-0.04,1.24s-0.07,0.61-0.11,0.84s-0.1,0.41-0.17,0.55
		c-0.07,0.14-0.21,0.32-0.44,0.54c-0.23,0.22-0.62,0.48-1.17,0.8c-0.55,0.31-1.17,0.59-1.88,0.84c-0.7,0.25-1.46,0.44-2.29,0.6
		c-0.82,0.15-1.67,0.23-2.54,0.23c-1.95,0-3.68-0.3-5.19-0.91c-1.51-0.61-2.77-1.5-3.79-2.69s-1.8-2.63-2.32-4.33
		c-0.52-1.71-0.78-3.66-0.78-5.85c0-2.54,0.32-4.73,0.95-6.58c0.63-1.85,1.52-3.38,2.66-4.59c1.14-1.21,2.48-2.11,4.04-2.7
		c1.55-0.59,3.26-0.88,5.12-0.88c0.76,0,1.5,0.07,2.23,0.2c0.73,0.13,1.41,0.31,2.05,0.54c0.63,0.23,1.2,0.48,1.71,0.77
		c0.5,0.28,0.86,0.53,1.07,0.74c0.21,0.21,0.35,0.38,0.44,0.53c0.08,0.14,0.15,0.33,0.2,0.55c0.05,0.23,0.09,0.51,0.11,0.84
		s0.04,0.73,0.04,1.21c0,1.1-0.09,1.87-0.28,2.32c-0.19,0.45-0.44,0.67-0.74,0.67c-0.32,0-0.66-0.13-1.02-0.4
		c-0.36-0.27-0.79-0.56-1.28-0.88s-1.08-0.62-1.76-0.88c-0.68-0.27-1.5-0.4-2.44-0.4c-1.86,0-3.28,0.72-4.26,2.15
		c-0.99,1.43-1.48,3.53-1.48,6.29c0,1.36,0.12,2.57,0.37,3.61c0.25,1.04,0.61,1.91,1.09,2.61c0.48,0.7,1.09,1.23,1.82,1.58
		s1.58,0.53,2.54,0.53c0.98,0,1.83-0.15,2.54-0.44c0.71-0.29,1.33-0.62,1.86-0.98c0.53-0.36,0.98-0.69,1.34-0.98
		c0.36-0.29,0.66-0.44,0.91-0.44c0.17,0,0.31,0.05,0.43,0.14c0.11,0.1,0.2,0.27,0.27,0.53c0.07,0.26,0.12,0.58,0.16,0.98
		C154.21,333.69,154.23,334.2,154.23,334.83z"/>
	<path class="st0" d="M165.36,304.93c0,1.44-0.29,2.44-0.88,2.98c-0.59,0.55-1.68,0.82-3.27,0.82c-1.61,0-2.7-0.27-3.25-0.8
		c-0.56-0.53-0.84-1.49-0.84-2.87c0-1.44,0.29-2.44,0.87-3c0.58-0.56,1.67-0.84,3.28-0.84c1.59,0,2.67,0.27,3.24,0.81
		S165.36,303.55,165.36,304.93z M164.82,338.86c0,0.19-0.06,0.36-0.17,0.5s-0.31,0.26-0.58,0.35c-0.27,0.1-0.64,0.17-1.09,0.21
		c-0.45,0.05-1.03,0.07-1.73,0.07c-0.7,0-1.28-0.02-1.73-0.07c-0.45-0.05-0.82-0.12-1.09-0.21c-0.27-0.09-0.47-0.21-0.58-0.35
		s-0.17-0.31-0.17-0.5v-25.29c0-0.19,0.06-0.36,0.17-0.5s0.31-0.27,0.58-0.37c0.27-0.1,0.64-0.18,1.09-0.24
		c0.45-0.06,1.03-0.09,1.73-0.09c0.7,0,1.28,0.03,1.73,0.09c0.45,0.06,0.82,0.14,1.09,0.24c0.27,0.1,0.47,0.23,0.58,0.37
		s0.17,0.31,0.17,0.5V338.86z"/>
	<path class="st0" d="M185.21,336.36c0,0.83-0.05,1.47-0.16,1.92c-0.1,0.45-0.24,0.76-0.41,0.94s-0.42,0.34-0.75,0.48
		c-0.33,0.14-0.72,0.27-1.17,0.37c-0.45,0.1-0.93,0.18-1.45,0.24c-0.52,0.06-1.05,0.09-1.58,0.09c-1.42,0-2.65-0.18-3.69-0.54
		c-1.04-0.36-1.9-0.91-2.59-1.66c-0.68-0.75-1.18-1.69-1.51-2.83c-0.32-1.14-0.48-2.48-0.48-4.04v-12.99h-3.04
		c-0.36,0-0.64-0.22-0.82-0.67c-0.19-0.44-0.28-1.19-0.28-2.23c0-0.55,0.02-1.01,0.07-1.39c0.05-0.38,0.12-0.68,0.21-0.9
		c0.09-0.22,0.21-0.37,0.35-0.47c0.14-0.09,0.31-0.14,0.5-0.14h3.01v-5.66c0-0.19,0.05-0.36,0.16-0.51c0.1-0.15,0.29-0.28,0.57-0.38
		c0.27-0.1,0.64-0.18,1.11-0.23c0.46-0.05,1.04-0.07,1.72-0.07c0.7,0,1.28,0.02,1.75,0.07c0.46,0.05,0.83,0.12,1.09,0.23
		c0.27,0.1,0.45,0.23,0.57,0.38c0.11,0.15,0.17,0.32,0.17,0.51v5.66h5.51c0.19,0,0.35,0.05,0.5,0.14c0.14,0.1,0.26,0.25,0.36,0.47
		c0.09,0.22,0.17,0.52,0.21,0.9c0.05,0.38,0.07,0.84,0.07,1.39c0,1.04-0.1,1.79-0.28,2.23c-0.19,0.45-0.46,0.67-0.82,0.67h-5.54
		v11.91c0,1.38,0.22,2.42,0.65,3.11c0.44,0.69,1.21,1.04,2.33,1.04c0.38,0,0.72-0.03,1.02-0.1c0.3-0.07,0.57-0.14,0.81-0.23
		c0.24-0.08,0.44-0.16,0.6-0.23c0.16-0.07,0.31-0.1,0.44-0.1c0.11,0,0.22,0.03,0.33,0.1c0.1,0.07,0.18,0.2,0.24,0.4
		c0.06,0.2,0.11,0.47,0.16,0.81C185.19,335.4,185.21,335.83,185.21,336.36z"/>
	<path class="st0" d="M209.67,338.95c0,0.27-0.1,0.47-0.28,0.63c-0.19,0.15-0.49,0.26-0.9,0.33c-0.41,0.07-1.01,0.1-1.8,0.1
		c-0.85,0-1.47-0.03-1.86-0.1c-0.39-0.07-0.66-0.18-0.82-0.33c-0.16-0.15-0.24-0.36-0.24-0.63v-2.02c-1.04,1.12-2.23,1.99-3.57,2.61
		c-1.34,0.63-2.82,0.94-4.45,0.94c-1.35,0-2.58-0.18-3.71-0.53c-1.13-0.35-2.1-0.87-2.93-1.56c-0.82-0.69-1.46-1.55-1.92-2.57
		c-0.45-1.02-0.68-2.22-0.68-3.58c0-1.48,0.29-2.76,0.87-3.85c0.58-1.09,1.44-1.99,2.59-2.7s2.57-1.24,4.28-1.58
		c1.71-0.34,3.69-0.51,5.94-0.51h2.47v-1.53c0-0.8-0.08-1.49-0.24-2.09c-0.16-0.6-0.43-1.09-0.8-1.49c-0.37-0.4-0.86-0.69-1.48-0.88
		c-0.62-0.19-1.38-0.28-2.29-0.28c-1.19,0-2.26,0.13-3.2,0.4c-0.94,0.27-1.77,0.56-2.49,0.88s-1.32,0.62-1.8,0.88
		c-0.48,0.27-0.88,0.4-1.18,0.4c-0.21,0-0.39-0.07-0.55-0.2c-0.16-0.13-0.29-0.32-0.4-0.57c-0.1-0.25-0.18-0.55-0.24-0.91
		c-0.06-0.36-0.08-0.76-0.08-1.19c0-0.59,0.05-1.05,0.14-1.39c0.09-0.34,0.27-0.65,0.54-0.92c0.26-0.27,0.73-0.58,1.39-0.91
		c0.66-0.33,1.44-0.64,2.33-0.92s1.86-0.52,2.91-0.7c1.05-0.18,2.14-0.27,3.25-0.27c1.99,0,3.69,0.19,5.1,0.58
		c1.41,0.39,2.57,0.99,3.48,1.79c0.91,0.81,1.57,1.84,1.99,3.11c0.42,1.27,0.63,2.78,0.63,4.52V338.95z M202.65,328.09h-2.73
		c-1.16,0-2.14,0.09-2.96,0.26c-0.81,0.17-1.48,0.43-1.99,0.77c-0.51,0.34-0.89,0.75-1.12,1.24c-0.24,0.48-0.36,1.04-0.36,1.66
		c0,1.06,0.34,1.89,1.01,2.5c0.67,0.61,1.61,0.91,2.8,0.91c1,0,1.93-0.26,2.77-0.77c0.84-0.51,1.7-1.26,2.57-2.25V328.09z"/>
	<path class="st0" d="M234.24,334.83c0,0.49-0.01,0.9-0.04,1.24s-0.07,0.61-0.11,0.84s-0.1,0.41-0.17,0.55
		c-0.07,0.14-0.21,0.32-0.44,0.54c-0.23,0.22-0.62,0.48-1.17,0.8c-0.55,0.31-1.17,0.59-1.88,0.84c-0.7,0.25-1.46,0.44-2.29,0.6
		c-0.82,0.15-1.67,0.23-2.54,0.23c-1.95,0-3.68-0.3-5.19-0.91c-1.51-0.61-2.77-1.5-3.79-2.69s-1.8-2.63-2.32-4.33
		c-0.52-1.71-0.78-3.66-0.78-5.85c0-2.54,0.32-4.73,0.95-6.58c0.63-1.85,1.52-3.38,2.66-4.59c1.14-1.21,2.48-2.11,4.04-2.7
		c1.55-0.59,3.26-0.88,5.12-0.88c0.76,0,1.5,0.07,2.23,0.2c0.73,0.13,1.41,0.31,2.05,0.54c0.63,0.23,1.2,0.48,1.71,0.77
		c0.5,0.28,0.86,0.53,1.07,0.74c0.21,0.21,0.35,0.38,0.44,0.53c0.08,0.14,0.15,0.33,0.2,0.55c0.05,0.23,0.09,0.51,0.11,0.84
		s0.04,0.73,0.04,1.21c0,1.1-0.09,1.87-0.28,2.32c-0.19,0.45-0.44,0.67-0.74,0.67c-0.32,0-0.66-0.13-1.02-0.4
		c-0.36-0.27-0.79-0.56-1.28-0.88s-1.08-0.62-1.76-0.88c-0.68-0.27-1.5-0.4-2.44-0.4c-1.86,0-3.28,0.72-4.26,2.15
		c-0.99,1.43-1.48,3.53-1.48,6.29c0,1.36,0.12,2.57,0.37,3.61c0.25,1.04,0.61,1.91,1.09,2.61c0.48,0.7,1.09,1.23,1.82,1.58
		s1.58,0.53,2.54,0.53c0.98,0,1.83-0.15,2.54-0.44c0.71-0.29,1.33-0.62,1.86-0.98c0.53-0.36,0.98-0.69,1.34-0.98
		c0.36-0.29,0.66-0.44,0.91-0.44c0.17,0,0.31,0.05,0.43,0.14c0.11,0.1,0.2,0.27,0.27,0.53c0.07,0.26,0.12,0.58,0.16,0.98
		C234.22,333.69,234.24,334.2,234.24,334.83z"/>
	<path class="st0" d="M245.37,304.93c0,1.44-0.29,2.44-0.88,2.98c-0.59,0.55-1.68,0.82-3.27,0.82c-1.61,0-2.7-0.27-3.25-0.8
		c-0.56-0.53-0.84-1.49-0.84-2.87c0-1.44,0.29-2.44,0.87-3c0.58-0.56,1.67-0.84,3.28-0.84c1.59,0,2.67,0.27,3.24,0.81
		S245.37,303.55,245.37,304.93z M244.83,338.86c0,0.19-0.06,0.36-0.17,0.5s-0.31,0.26-0.58,0.35c-0.27,0.1-0.64,0.17-1.09,0.21
		c-0.45,0.05-1.03,0.07-1.73,0.07c-0.7,0-1.28-0.02-1.73-0.07c-0.45-0.05-0.82-0.12-1.09-0.21c-0.27-0.09-0.47-0.21-0.58-0.35
		s-0.17-0.31-0.17-0.5v-25.29c0-0.19,0.06-0.36,0.17-0.5s0.31-0.27,0.58-0.37c0.27-0.1,0.64-0.18,1.09-0.24
		c0.45-0.06,1.03-0.09,1.73-0.09c0.7,0,1.28,0.03,1.73,0.09c0.45,0.06,0.82,0.14,1.09,0.24c0.27,0.1,0.47,0.23,0.58,0.37
		s0.17,0.31,0.17,0.5V338.86z"/>
	<path class="st0" d="M275.85,325.93c0,2.16-0.28,4.13-0.85,5.91c-0.57,1.78-1.43,3.32-2.59,4.6c-1.16,1.29-2.61,2.28-4.35,2.98
		c-1.74,0.7-3.78,1.05-6.11,1.05c-2.26,0-4.22-0.31-5.88-0.94c-1.67-0.63-3.05-1.53-4.15-2.73c-1.1-1.19-1.91-2.66-2.44-4.41
		c-0.53-1.74-0.8-3.73-0.8-5.97c0-2.16,0.29-4.13,0.87-5.93c0.58-1.79,1.44-3.33,2.6-4.6c1.16-1.28,2.6-2.27,4.33-2.97
		c1.73-0.7,3.77-1.05,6.1-1.05c2.27,0,4.24,0.31,5.91,0.92c1.67,0.62,3.05,1.52,4.14,2.71c1.09,1.19,1.9,2.66,2.43,4.4
		C275.58,321.68,275.85,323.68,275.85,325.93z M268.49,326.22c0-1.25-0.1-2.4-0.3-3.45c-0.2-1.05-0.54-1.97-1.01-2.74
		c-0.47-0.78-1.1-1.38-1.89-1.82c-0.79-0.44-1.78-0.65-2.97-0.65c-1.06,0-1.99,0.19-2.79,0.58c-0.8,0.39-1.45,0.96-1.96,1.71
		s-0.9,1.65-1.15,2.7c-0.26,1.05-0.38,2.25-0.38,3.6c0,1.25,0.1,2.4,0.31,3.45s0.54,1.97,1.01,2.74s1.09,1.38,1.89,1.8
		s1.78,0.64,2.96,0.64c1.08,0,2.02-0.19,2.81-0.58c0.8-0.39,1.45-0.95,1.96-1.69s0.89-1.63,1.14-2.69
		C268.37,328.76,268.49,327.56,268.49,326.22z"/>
	<path class="st0" d="M303.97,338.86c0,0.19-0.06,0.36-0.17,0.5s-0.3,0.26-0.57,0.35c-0.27,0.1-0.63,0.17-1.09,0.21
		c-0.46,0.05-1.04,0.07-1.72,0.07c-0.7,0-1.28-0.02-1.75-0.07c-0.46-0.05-0.83-0.12-1.09-0.21c-0.27-0.09-0.45-0.21-0.57-0.35
		s-0.17-0.31-0.17-0.5V324.4c0-1.23-0.09-2.2-0.27-2.9c-0.18-0.7-0.44-1.3-0.78-1.8c-0.34-0.5-0.78-0.89-1.32-1.17
		c-0.54-0.27-1.17-0.41-1.89-0.41c-0.91,0-1.83,0.33-2.76,1s-1.89,1.63-2.9,2.9v16.85c0,0.19-0.06,0.36-0.17,0.5
		s-0.31,0.26-0.58,0.35c-0.27,0.1-0.64,0.17-1.09,0.21c-0.45,0.05-1.03,0.07-1.73,0.07c-0.7,0-1.28-0.02-1.73-0.07
		c-0.45-0.05-0.82-0.12-1.09-0.21c-0.27-0.09-0.47-0.21-0.58-0.35s-0.17-0.31-0.17-0.5v-25.35c0-0.19,0.05-0.35,0.14-0.5
		c0.09-0.14,0.27-0.26,0.51-0.36c0.25-0.09,0.56-0.17,0.95-0.21c0.39-0.05,0.88-0.07,1.46-0.07c0.61,0,1.11,0.02,1.51,0.07
		c0.4,0.05,0.71,0.12,0.92,0.21c0.22,0.1,0.37,0.21,0.47,0.36c0.09,0.14,0.14,0.31,0.14,0.5v2.93c1.4-1.52,2.83-2.65,4.28-3.41
		c1.45-0.76,2.96-1.14,4.53-1.14c1.72,0,3.18,0.28,4.36,0.85c1.18,0.57,2.14,1.34,2.87,2.32c0.73,0.98,1.25,2.12,1.58,3.42
		c0.32,1.31,0.48,2.88,0.48,4.72V338.86z"/>
	<path class="st0" d="M332.67,325.45c0,0.87-0.19,1.52-0.58,1.93c-0.39,0.42-0.92,0.63-1.61,0.63h-15.43c0,1.08,0.13,2.06,0.38,2.94
		c0.26,0.88,0.66,1.63,1.22,2.25c0.56,0.62,1.28,1.08,2.16,1.41c0.88,0.32,1.94,0.48,3.17,0.48c1.25,0,2.35-0.09,3.3-0.27
		s1.77-0.38,2.46-0.6c0.69-0.22,1.26-0.42,1.72-0.6c0.45-0.18,0.82-0.27,1.11-0.27c0.17,0,0.31,0.03,0.43,0.1s0.21,0.18,0.28,0.36
		c0.08,0.17,0.13,0.41,0.16,0.72s0.04,0.71,0.04,1.18c0,0.42-0.01,0.77-0.03,1.07c-0.02,0.29-0.05,0.54-0.09,0.75
		c-0.04,0.21-0.09,0.38-0.17,0.53s-0.18,0.28-0.3,0.41c-0.12,0.13-0.46,0.31-1.01,0.54c-0.55,0.23-1.25,0.45-2.1,0.67
		c-0.85,0.22-1.83,0.41-2.93,0.57c-1.1,0.16-2.27,0.24-3.52,0.24c-2.25,0-4.23-0.28-5.93-0.85c-1.7-0.57-3.11-1.43-4.25-2.59
		c-1.14-1.16-1.99-2.61-2.54-4.38c-0.56-1.76-0.84-3.83-0.84-6.2c0-2.25,0.29-4.29,0.88-6.1c0.59-1.81,1.44-3.34,2.56-4.6
		c1.12-1.26,2.48-2.22,4.08-2.88s3.41-1,5.41-1c2.12,0,3.94,0.31,5.44,0.94c1.51,0.63,2.74,1.49,3.71,2.6
		c0.97,1.11,1.68,2.42,2.13,3.94c0.45,1.52,0.68,3.16,0.68,4.95V325.45z M325.73,323.4c0.06-2.01-0.35-3.58-1.21-4.73
		c-0.86-1.15-2.19-1.72-3.99-1.72c-0.91,0-1.7,0.17-2.37,0.51c-0.67,0.34-1.23,0.8-1.68,1.38c-0.45,0.58-0.79,1.26-1.02,2.05
		c-0.24,0.79-0.37,1.63-0.41,2.52H325.73z"/>
	<path class="st0" d="M354.65,331.7c0,1.44-0.27,2.71-0.81,3.81c-0.54,1.1-1.3,2.02-2.29,2.76c-0.99,0.74-2.15,1.29-3.5,1.66
		c-1.35,0.37-2.8,0.55-4.38,0.55c-0.95,0-1.85-0.07-2.71-0.21c-0.86-0.14-1.63-0.32-2.32-0.54c-0.68-0.22-1.25-0.44-1.71-0.67
		c-0.45-0.23-0.79-0.44-0.99-0.64c-0.21-0.2-0.37-0.51-0.48-0.94s-0.17-1.06-0.17-1.89c0-0.55,0.02-0.99,0.06-1.32
		s0.09-0.6,0.17-0.8c0.08-0.2,0.17-0.33,0.28-0.4c0.11-0.07,0.26-0.1,0.43-0.1c0.21,0,0.52,0.12,0.92,0.35
		c0.41,0.24,0.91,0.5,1.52,0.78s1.31,0.55,2.12,0.8c0.8,0.25,1.72,0.37,2.74,0.37c0.64,0,1.22-0.07,1.72-0.2
		c0.5-0.13,0.94-0.32,1.31-0.57c0.37-0.25,0.65-0.56,0.84-0.94c0.19-0.38,0.28-0.81,0.28-1.31c0-0.57-0.18-1.06-0.53-1.46
		c-0.35-0.41-0.81-0.76-1.39-1.07c-0.58-0.3-1.23-0.59-1.96-0.85c-0.73-0.27-1.48-0.56-2.25-0.88c-0.77-0.32-1.52-0.69-2.25-1.11
		c-0.73-0.42-1.38-0.93-1.96-1.53c-0.58-0.61-1.04-1.34-1.39-2.19c-0.35-0.85-0.53-1.88-0.53-3.07c0-1.21,0.24-2.33,0.71-3.34
		s1.16-1.88,2.05-2.6c0.89-0.72,1.98-1.28,3.25-1.68c1.28-0.4,2.71-0.6,4.31-0.6c0.8,0,1.57,0.06,2.32,0.17
		c0.75,0.11,1.43,0.26,2.03,0.43c0.61,0.17,1.12,0.35,1.53,0.55c0.42,0.2,0.71,0.37,0.9,0.51s0.31,0.28,0.38,0.43
		c0.08,0.14,0.13,0.31,0.17,0.51c0.04,0.2,0.07,0.45,0.1,0.74s0.04,0.66,0.04,1.09c0,0.51-0.01,0.93-0.04,1.25
		c-0.03,0.32-0.08,0.58-0.14,0.77c-0.07,0.19-0.16,0.32-0.27,0.38s-0.25,0.1-0.4,0.1c-0.17,0-0.44-0.1-0.8-0.3
		c-0.36-0.2-0.81-0.41-1.35-0.64c-0.54-0.23-1.17-0.44-1.88-0.64c-0.71-0.2-1.52-0.3-2.43-0.3c-0.64,0-1.2,0.07-1.68,0.2
		c-0.47,0.13-0.86,0.32-1.17,0.57c-0.3,0.25-0.53,0.54-0.68,0.87c-0.15,0.33-0.23,0.69-0.23,1.07c0,0.59,0.18,1.08,0.54,1.48
		s0.83,0.75,1.42,1.05c0.59,0.3,1.25,0.59,2,0.85c0.75,0.27,1.51,0.55,2.27,0.87c0.77,0.31,1.52,0.68,2.27,1.09
		c0.75,0.42,1.42,0.93,2,1.53c0.59,0.61,1.06,1.33,1.42,2.17C354.47,329.55,354.65,330.55,354.65,331.7z"/>
	<path class="st0" d="M382.25,325.53c0,1.1-0.1,1.87-0.31,2.3c-0.21,0.44-0.54,0.65-0.99,0.65h-11.82c-0.47,0-0.81-0.22-1.02-0.67
		c-0.21-0.44-0.31-1.21-0.31-2.29c0-1.06,0.1-1.81,0.31-2.25s0.55-0.65,1.02-0.65h11.82c0.23,0,0.42,0.05,0.58,0.14
		c0.16,0.1,0.3,0.26,0.41,0.48c0.11,0.23,0.19,0.53,0.24,0.91C382.23,324.55,382.25,325,382.25,325.53z"/>
	<path class="st0" d="M419.4,336.9c0,0.55-0.02,1.01-0.07,1.38c-0.05,0.37-0.12,0.67-0.21,0.9c-0.09,0.23-0.21,0.39-0.35,0.5
		c-0.14,0.1-0.3,0.16-0.47,0.16h-18.47c-0.63,0-1.15-0.18-1.58-0.55c-0.43-0.37-0.64-0.97-0.64-1.8v-32.06
		c0-0.83,0.21-1.44,0.64-1.8c0.43-0.37,0.95-0.55,1.58-0.55h18.36c0.17,0,0.32,0.05,0.46,0.14c0.13,0.09,0.25,0.26,0.34,0.5
		c0.09,0.24,0.17,0.54,0.21,0.91c0.05,0.37,0.07,0.84,0.07,1.41c0,0.53-0.02,0.98-0.07,1.35c-0.05,0.37-0.12,0.67-0.21,0.9
		c-0.1,0.23-0.21,0.39-0.34,0.5c-0.13,0.1-0.28,0.16-0.46,0.16h-13.13v8.98h11.11c0.17,0,0.33,0.05,0.47,0.16
		c0.14,0.1,0.26,0.27,0.36,0.48c0.09,0.22,0.17,0.51,0.21,0.88c0.05,0.37,0.07,0.82,0.07,1.35c0,0.55-0.02,1-0.07,1.36
		c-0.05,0.36-0.12,0.65-0.21,0.87c-0.1,0.22-0.21,0.37-0.36,0.47c-0.14,0.1-0.3,0.14-0.47,0.14h-11.11v10.37h13.24
		c0.17,0,0.33,0.05,0.47,0.16c0.14,0.1,0.26,0.27,0.35,0.5c0.09,0.23,0.17,0.53,0.21,0.9C419.37,335.89,419.4,336.35,419.4,336.9z"
		/>
	<path class="st0" d="M447.01,338.86c0,0.21-0.05,0.38-0.14,0.53s-0.26,0.26-0.48,0.35c-0.23,0.09-0.54,0.16-0.92,0.2
		c-0.39,0.04-0.87,0.06-1.44,0.06c-0.61,0-1.1-0.02-1.48-0.06c-0.38-0.04-0.69-0.1-0.92-0.2c-0.24-0.09-0.41-0.21-0.51-0.35
		c-0.1-0.14-0.16-0.32-0.16-0.53v-2.81c-1.31,1.4-2.68,2.49-4.11,3.27c-1.43,0.78-3.02,1.17-4.76,1.17c-1.93,0-3.57-0.37-4.9-1.12
		c-1.34-0.75-2.43-1.76-3.27-3.03c-0.84-1.27-1.45-2.75-1.83-4.45s-0.57-3.48-0.57-5.36c0-2.25,0.24-4.28,0.73-6.08
		c0.48-1.8,1.19-3.33,2.12-4.6c0.93-1.27,2.08-2.25,3.47-2.93c1.38-0.68,2.97-1.02,4.77-1.02c1.42,0,2.71,0.29,3.87,0.87
		s2.3,1.43,3.44,2.54v-13.73c0-0.19,0.05-0.36,0.16-0.51c0.1-0.15,0.29-0.28,0.57-0.38c0.27-0.1,0.64-0.19,1.09-0.24
		c0.45-0.06,1.03-0.09,1.73-0.09c0.7,0,1.28,0.03,1.73,0.09c0.45,0.06,0.81,0.14,1.08,0.24c0.27,0.1,0.45,0.23,0.57,0.38
		c0.11,0.15,0.17,0.32,0.17,0.51V338.86z M439.91,321.92c-1.02-1.29-2-2.27-2.94-2.96c-0.94-0.68-1.92-1.02-2.94-1.02
		c-0.93,0-1.73,0.23-2.4,0.7c-0.67,0.46-1.21,1.08-1.62,1.86c-0.41,0.78-0.71,1.64-0.91,2.6c-0.2,0.96-0.3,1.94-0.3,2.94
		c0,1.06,0.08,2.09,0.26,3.1c0.17,1,0.45,1.9,0.84,2.69c0.39,0.79,0.9,1.42,1.55,1.89c0.64,0.47,1.46,0.71,2.44,0.71
		c0.49,0,0.97-0.07,1.44-0.21c0.46-0.14,0.94-0.37,1.42-0.7c0.48-0.32,0.98-0.74,1.49-1.26c0.51-0.52,1.07-1.16,1.68-1.92V321.92z"
		/>
	<path class="st0" d="M476.5,338.86c0,0.19-0.05,0.36-0.14,0.5c-0.1,0.14-0.26,0.26-0.5,0.35c-0.24,0.1-0.55,0.17-0.94,0.21
		c-0.39,0.05-0.88,0.07-1.46,0.07c-0.63,0-1.13-0.02-1.52-0.07c-0.39-0.05-0.7-0.12-0.92-0.21c-0.23-0.09-0.39-0.21-0.48-0.35
		c-0.1-0.14-0.14-0.31-0.14-0.5v-2.93c-1.4,1.52-2.83,2.65-4.28,3.41c-1.45,0.76-2.95,1.14-4.5,1.14c-1.74,0-3.21-0.28-4.39-0.85
		c-1.18-0.57-2.14-1.35-2.87-2.33c-0.73-0.98-1.25-2.13-1.56-3.42c-0.31-1.3-0.47-2.91-0.47-4.85v-15.52c0-0.19,0.05-0.35,0.16-0.5
		c0.1-0.14,0.29-0.26,0.57-0.36c0.27-0.09,0.64-0.17,1.11-0.21c0.46-0.05,1.04-0.07,1.72-0.07c0.7,0,1.28,0.02,1.73,0.07
		c0.45,0.05,0.82,0.12,1.09,0.21c0.27,0.1,0.47,0.21,0.58,0.36s0.17,0.31,0.17,0.5v14.32c0,1.33,0.09,2.34,0.26,3.04
		c0.17,0.7,0.43,1.3,0.78,1.8c0.35,0.5,0.8,0.89,1.34,1.17c0.54,0.27,1.17,0.41,1.89,0.41c0.91,0,1.82-0.33,2.74-0.99
		c0.92-0.66,1.9-1.63,2.94-2.9v-16.85c0-0.19,0.05-0.35,0.16-0.5c0.1-0.14,0.29-0.26,0.57-0.36c0.27-0.09,0.64-0.17,1.09-0.21
		c0.46-0.05,1.03-0.07,1.73-0.07c0.7,0,1.28,0.02,1.73,0.07c0.46,0.05,0.81,0.12,1.08,0.21c0.27,0.1,0.46,0.21,0.57,0.36
		s0.17,0.31,0.17,0.5V338.86z"/>
	<path class="st0" d="M501.13,334.83c0,0.49-0.01,0.9-0.04,1.24c-0.03,0.33-0.07,0.61-0.11,0.84c-0.05,0.23-0.1,0.41-0.17,0.55
		s-0.21,0.32-0.44,0.54c-0.23,0.22-0.62,0.48-1.17,0.8c-0.55,0.31-1.17,0.59-1.88,0.84c-0.7,0.25-1.46,0.44-2.29,0.6
		c-0.82,0.15-1.67,0.23-2.54,0.23c-1.95,0-3.68-0.3-5.19-0.91c-1.51-0.61-2.77-1.5-3.79-2.69c-1.02-1.18-1.8-2.63-2.32-4.33
		c-0.52-1.71-0.78-3.66-0.78-5.85c0-2.54,0.32-4.73,0.95-6.58c0.63-1.85,1.52-3.38,2.66-4.59c1.14-1.21,2.48-2.11,4.04-2.7
		c1.55-0.59,3.26-0.88,5.12-0.88c0.76,0,1.5,0.07,2.23,0.2c0.73,0.13,1.41,0.31,2.05,0.54s1.2,0.48,1.71,0.77
		c0.5,0.28,0.86,0.53,1.07,0.74c0.21,0.21,0.36,0.38,0.44,0.53s0.15,0.33,0.2,0.55c0.05,0.23,0.08,0.51,0.11,0.84
		s0.04,0.73,0.04,1.21c0,1.1-0.1,1.87-0.28,2.32c-0.19,0.45-0.44,0.67-0.74,0.67c-0.32,0-0.66-0.13-1.02-0.4
		c-0.36-0.27-0.79-0.56-1.28-0.88c-0.49-0.32-1.08-0.62-1.76-0.88c-0.68-0.27-1.5-0.4-2.44-0.4c-1.86,0-3.28,0.72-4.26,2.15
		c-0.99,1.43-1.48,3.53-1.48,6.29c0,1.36,0.12,2.57,0.37,3.61c0.25,1.04,0.61,1.91,1.09,2.61c0.48,0.7,1.09,1.23,1.82,1.58
		s1.58,0.53,2.54,0.53c0.98,0,1.83-0.15,2.54-0.44c0.71-0.29,1.33-0.62,1.86-0.98c0.53-0.36,0.98-0.69,1.34-0.98
		c0.36-0.29,0.66-0.44,0.91-0.44c0.17,0,0.31,0.05,0.43,0.14c0.11,0.1,0.2,0.27,0.27,0.53s0.12,0.58,0.16,0.98
		S501.13,334.2,501.13,334.83z"/>
	<path class="st0" d="M525.81,338.95c0,0.27-0.09,0.47-0.28,0.63c-0.19,0.15-0.49,0.26-0.9,0.33c-0.41,0.07-1.01,0.1-1.8,0.1
		c-0.85,0-1.47-0.03-1.86-0.1c-0.39-0.07-0.66-0.18-0.82-0.33c-0.16-0.15-0.24-0.36-0.24-0.63v-2.02c-1.04,1.12-2.23,1.99-3.57,2.61
		c-1.34,0.63-2.82,0.94-4.45,0.94c-1.35,0-2.58-0.18-3.71-0.53c-1.13-0.35-2.1-0.87-2.93-1.56c-0.82-0.69-1.46-1.55-1.92-2.57
		c-0.46-1.02-0.68-2.22-0.68-3.58c0-1.48,0.29-2.76,0.87-3.85c0.58-1.09,1.44-1.99,2.59-2.7s2.57-1.24,4.28-1.58
		c1.71-0.34,3.68-0.51,5.94-0.51h2.47v-1.53c0-0.8-0.08-1.49-0.24-2.09c-0.16-0.6-0.43-1.09-0.8-1.49c-0.37-0.4-0.86-0.69-1.48-0.88
		c-0.62-0.19-1.38-0.28-2.29-0.28c-1.19,0-2.26,0.13-3.2,0.4c-0.94,0.27-1.77,0.56-2.49,0.88c-0.72,0.32-1.32,0.62-1.8,0.88
		c-0.48,0.27-0.88,0.4-1.18,0.4c-0.21,0-0.39-0.07-0.55-0.2c-0.16-0.13-0.29-0.32-0.4-0.57c-0.1-0.25-0.18-0.55-0.24-0.91
		c-0.06-0.36-0.09-0.76-0.09-1.19c0-0.59,0.05-1.05,0.14-1.39c0.09-0.34,0.27-0.65,0.54-0.92c0.26-0.27,0.73-0.58,1.39-0.91
		c0.66-0.33,1.44-0.64,2.33-0.92s1.86-0.52,2.91-0.7c1.05-0.18,2.14-0.27,3.25-0.27c1.99,0,3.69,0.19,5.1,0.58s2.57,0.99,3.48,1.79
		c0.91,0.81,1.57,1.84,1.99,3.11c0.42,1.27,0.63,2.78,0.63,4.52V338.95z M518.79,328.09h-2.73c-1.16,0-2.14,0.09-2.96,0.26
		s-1.48,0.43-1.99,0.77c-0.51,0.34-0.89,0.75-1.12,1.24c-0.24,0.48-0.35,1.04-0.35,1.66c0,1.06,0.34,1.89,1.01,2.5
		c0.67,0.61,1.61,0.91,2.8,0.91c1,0,1.93-0.26,2.77-0.77c0.84-0.51,1.7-1.26,2.57-2.25V328.09z"/>
	<path class="st0" d="M550.38,334.83c0,0.49-0.01,0.9-0.04,1.24c-0.03,0.33-0.07,0.61-0.11,0.84c-0.05,0.23-0.1,0.41-0.17,0.55
		s-0.21,0.32-0.44,0.54c-0.23,0.22-0.62,0.48-1.17,0.8c-0.55,0.31-1.17,0.59-1.88,0.84c-0.7,0.25-1.46,0.44-2.29,0.6
		c-0.82,0.15-1.67,0.23-2.54,0.23c-1.95,0-3.68-0.3-5.19-0.91c-1.51-0.61-2.77-1.5-3.79-2.69c-1.02-1.18-1.8-2.63-2.32-4.33
		c-0.52-1.71-0.78-3.66-0.78-5.85c0-2.54,0.32-4.73,0.95-6.58c0.63-1.85,1.52-3.38,2.66-4.59c1.14-1.21,2.48-2.11,4.04-2.7
		c1.55-0.59,3.26-0.88,5.12-0.88c0.76,0,1.5,0.07,2.23,0.2c0.73,0.13,1.41,0.31,2.05,0.54s1.2,0.48,1.71,0.77
		c0.5,0.28,0.86,0.53,1.07,0.74c0.21,0.21,0.36,0.38,0.44,0.53s0.15,0.33,0.2,0.55c0.05,0.23,0.08,0.51,0.11,0.84
		s0.04,0.73,0.04,1.21c0,1.1-0.1,1.87-0.28,2.32c-0.19,0.45-0.44,0.67-0.74,0.67c-0.32,0-0.66-0.13-1.02-0.4
		c-0.36-0.27-0.79-0.56-1.28-0.88c-0.49-0.32-1.08-0.62-1.76-0.88c-0.68-0.27-1.5-0.4-2.44-0.4c-1.86,0-3.28,0.72-4.26,2.15
		c-0.99,1.43-1.48,3.53-1.48,6.29c0,1.36,0.12,2.57,0.37,3.61c0.25,1.04,0.61,1.91,1.09,2.61c0.48,0.7,1.09,1.23,1.82,1.58
		s1.58,0.53,2.54,0.53c0.98,0,1.83-0.15,2.54-0.44c0.71-0.29,1.33-0.62,1.86-0.98c0.53-0.36,0.98-0.69,1.34-0.98
		c0.36-0.29,0.66-0.44,0.91-0.44c0.17,0,0.31,0.05,0.43,0.14c0.11,0.1,0.2,0.27,0.27,0.53s0.12,0.58,0.16,0.98
		S550.38,334.2,550.38,334.83z"/>
	<path class="st0" d="M561.51,304.93c0,1.44-0.29,2.44-0.88,2.98c-0.59,0.55-1.68,0.82-3.27,0.82c-1.61,0-2.7-0.27-3.25-0.8
		c-0.56-0.53-0.84-1.49-0.84-2.87c0-1.44,0.29-2.44,0.87-3c0.58-0.56,1.67-0.84,3.28-0.84c1.59,0,2.67,0.27,3.24,0.81
		S561.51,303.55,561.51,304.93z M560.97,338.86c0,0.19-0.06,0.36-0.17,0.5c-0.11,0.14-0.31,0.26-0.58,0.35
		c-0.28,0.1-0.64,0.17-1.09,0.21c-0.46,0.05-1.03,0.07-1.73,0.07c-0.7,0-1.28-0.02-1.73-0.07c-0.46-0.05-0.82-0.12-1.09-0.21
		c-0.27-0.09-0.47-0.21-0.58-0.35c-0.11-0.14-0.17-0.31-0.17-0.5v-25.29c0-0.19,0.06-0.36,0.17-0.5c0.11-0.14,0.31-0.27,0.58-0.37
		c0.27-0.1,0.64-0.18,1.09-0.24c0.45-0.06,1.03-0.09,1.73-0.09c0.7,0,1.28,0.03,1.73,0.09c0.46,0.06,0.82,0.14,1.09,0.24
		c0.27,0.1,0.47,0.23,0.58,0.37c0.11,0.14,0.17,0.31,0.17,0.5V338.86z"/>
	<path class="st0" d="M591.99,325.93c0,2.16-0.28,4.13-0.85,5.91c-0.57,1.78-1.43,3.32-2.59,4.6c-1.16,1.29-2.61,2.28-4.35,2.98
		s-3.78,1.05-6.11,1.05c-2.25,0-4.22-0.31-5.88-0.94c-1.67-0.63-3.05-1.53-4.15-2.73c-1.1-1.19-1.91-2.66-2.44-4.41
		c-0.53-1.74-0.8-3.73-0.8-5.97c0-2.16,0.29-4.13,0.87-5.93s1.44-3.33,2.6-4.6c1.16-1.28,2.6-2.27,4.33-2.97
		c1.73-0.7,3.77-1.05,6.1-1.05c2.27,0,4.24,0.31,5.91,0.92c1.67,0.62,3.04,1.52,4.13,2.71c1.09,1.19,1.9,2.66,2.43,4.4
		C591.73,321.68,591.99,323.68,591.99,325.93z M584.63,326.22c0-1.25-0.1-2.4-0.3-3.45c-0.2-1.05-0.54-1.97-1.01-2.74
		c-0.47-0.78-1.1-1.38-1.89-1.82c-0.79-0.44-1.78-0.65-2.97-0.65c-1.06,0-1.99,0.19-2.79,0.58c-0.8,0.39-1.45,0.96-1.96,1.71
		c-0.51,0.75-0.89,1.65-1.15,2.7c-0.26,1.05-0.38,2.25-0.38,3.6c0,1.25,0.1,2.4,0.31,3.45c0.21,1.05,0.54,1.97,1.01,2.74
		s1.09,1.38,1.89,1.8c0.79,0.43,1.78,0.64,2.96,0.64c1.08,0,2.02-0.19,2.81-0.58c0.8-0.39,1.45-0.95,1.96-1.69
		c0.51-0.74,0.89-1.63,1.14-2.69C584.51,328.76,584.63,327.56,584.63,326.22z M579.8,301.06c0.13-0.21,0.29-0.39,0.48-0.54
		c0.19-0.15,0.43-0.27,0.71-0.35c0.28-0.09,0.64-0.15,1.08-0.18c0.44-0.04,0.97-0.06,1.59-0.06c0.87,0,1.56,0.04,2.06,0.11
		s0.86,0.18,1.08,0.33s0.32,0.31,0.3,0.5c-0.02,0.19-0.11,0.39-0.28,0.6l-5.51,6.59c-0.15,0.19-0.3,0.35-0.46,0.47
		c-0.15,0.12-0.35,0.22-0.58,0.3c-0.24,0.08-0.54,0.13-0.9,0.17c-0.36,0.04-0.82,0.06-1.36,0.06c-0.66,0-1.19-0.03-1.58-0.09
		c-0.39-0.06-0.66-0.15-0.81-0.27c-0.15-0.12-0.21-0.28-0.18-0.47c0.03-0.19,0.13-0.41,0.3-0.65L579.8,301.06z"/>
	<path class="st0" d="M620.12,338.86c0,0.19-0.06,0.36-0.17,0.5c-0.11,0.14-0.3,0.26-0.57,0.35c-0.27,0.1-0.63,0.17-1.09,0.21
		c-0.46,0.05-1.04,0.07-1.72,0.07c-0.7,0-1.28-0.02-1.75-0.07c-0.46-0.05-0.83-0.12-1.09-0.21c-0.27-0.09-0.45-0.21-0.57-0.35
		c-0.11-0.14-0.17-0.31-0.17-0.5V324.4c0-1.23-0.09-2.2-0.27-2.9c-0.18-0.7-0.44-1.3-0.78-1.8s-0.78-0.89-1.32-1.17
		c-0.54-0.27-1.17-0.41-1.89-0.41c-0.91,0-1.83,0.33-2.76,1s-1.89,1.63-2.9,2.9v16.85c0,0.19-0.06,0.36-0.17,0.5
		c-0.11,0.14-0.31,0.26-0.58,0.35c-0.28,0.1-0.64,0.17-1.09,0.21c-0.46,0.05-1.03,0.07-1.73,0.07c-0.7,0-1.28-0.02-1.73-0.07
		c-0.46-0.05-0.82-0.12-1.09-0.21c-0.27-0.09-0.47-0.21-0.58-0.35c-0.11-0.14-0.17-0.31-0.17-0.5v-25.35c0-0.19,0.05-0.35,0.14-0.5
		s0.27-0.26,0.51-0.36c0.25-0.09,0.56-0.17,0.95-0.21c0.39-0.05,0.88-0.07,1.46-0.07c0.61,0,1.11,0.02,1.51,0.07
		c0.4,0.05,0.71,0.12,0.92,0.21c0.22,0.1,0.37,0.21,0.47,0.36s0.14,0.31,0.14,0.5v2.93c1.4-1.52,2.83-2.65,4.28-3.41
		s2.96-1.14,4.53-1.14c1.72,0,3.18,0.28,4.36,0.85c1.18,0.57,2.14,1.34,2.87,2.32c0.73,0.98,1.25,2.12,1.58,3.42
		c0.32,1.31,0.48,2.88,0.48,4.72V338.86z"/>
	<path class="st0" d="M651.5,339.83l-3.07,8.98c-0.17,0.47-0.63,0.81-1.39,1.02s-1.87,0.31-3.33,0.31c-0.76,0-1.36-0.03-1.82-0.1
		c-0.45-0.07-0.8-0.18-1.02-0.33c-0.23-0.15-0.35-0.34-0.37-0.57c-0.02-0.23,0.04-0.5,0.17-0.82l3.38-8.5
		c-0.25-0.11-0.47-0.29-0.67-0.53c-0.2-0.24-0.35-0.49-0.44-0.75l-8.72-23.3c-0.25-0.66-0.37-1.17-0.37-1.52s0.11-0.63,0.34-0.82
		c0.23-0.2,0.61-0.34,1.15-0.41s1.25-0.11,2.15-0.11c0.81,0,1.46,0.01,1.93,0.04s0.84,0.1,1.11,0.21s0.46,0.29,0.6,0.53
		c0.13,0.24,0.26,0.57,0.4,1.01l5.97,16.97h0.09l5.46-17.31c0.11-0.49,0.26-0.82,0.44-0.98c0.18-0.16,0.48-0.28,0.89-0.35
		s1.15-0.11,2.19-0.11c0.81,0,1.49,0.04,2.03,0.11s0.94,0.22,1.19,0.43s0.38,0.49,0.38,0.84s-0.08,0.76-0.23,1.24L651.5,339.83z"/>
	<path class="st0" d="M698.93,306.12c0,0.55-0.02,1.02-0.07,1.41c-0.05,0.39-0.12,0.7-0.21,0.94c-0.1,0.24-0.21,0.41-0.36,0.53
		c-0.14,0.11-0.3,0.17-0.47,0.17h-9.21v29.64c0,0.19-0.06,0.36-0.19,0.51c-0.12,0.15-0.33,0.27-0.61,0.37
		c-0.28,0.1-0.67,0.17-1.15,0.23c-0.48,0.06-1.08,0.08-1.8,0.08c-0.72,0-1.32-0.03-1.8-0.08c-0.48-0.06-0.87-0.13-1.15-0.23
		c-0.28-0.09-0.49-0.22-0.61-0.37c-0.12-0.15-0.19-0.32-0.19-0.51v-29.64h-9.21c-0.19,0-0.35-0.06-0.48-0.17
		c-0.13-0.11-0.25-0.29-0.34-0.53s-0.17-0.55-0.21-0.94c-0.05-0.39-0.07-0.86-0.07-1.41c0-0.57,0.02-1.05,0.07-1.45
		c0.05-0.4,0.12-0.71,0.21-0.95c0.09-0.24,0.21-0.41,0.34-0.51c0.13-0.1,0.29-0.16,0.48-0.16h25.92c0.17,0,0.33,0.05,0.47,0.16
		c0.14,0.1,0.26,0.27,0.36,0.51c0.09,0.24,0.17,0.55,0.21,0.95C698.91,305.07,698.93,305.55,698.93,306.12z"/>
	<path class="st0" d="M719.5,325.45c0,0.87-0.19,1.52-0.58,1.93c-0.39,0.42-0.92,0.63-1.61,0.63h-15.43c0,1.08,0.13,2.06,0.38,2.94
		s0.66,1.63,1.22,2.25c0.56,0.62,1.28,1.08,2.16,1.41c0.88,0.32,1.94,0.48,3.17,0.48c1.25,0,2.35-0.09,3.3-0.27
		c0.95-0.18,1.77-0.38,2.46-0.6s1.26-0.42,1.72-0.6c0.45-0.18,0.82-0.27,1.11-0.27c0.17,0,0.31,0.03,0.43,0.1
		c0.11,0.07,0.21,0.18,0.28,0.36c0.08,0.17,0.13,0.41,0.16,0.72c0.03,0.31,0.04,0.71,0.04,1.18c0,0.42-0.01,0.77-0.03,1.07
		c-0.02,0.29-0.05,0.54-0.08,0.75c-0.04,0.21-0.1,0.38-0.17,0.53c-0.08,0.14-0.18,0.28-0.3,0.41c-0.12,0.13-0.46,0.31-1.01,0.54
		s-1.25,0.45-2.1,0.67s-1.83,0.41-2.93,0.57c-1.1,0.16-2.27,0.24-3.52,0.24c-2.25,0-4.23-0.28-5.92-0.85
		c-1.7-0.57-3.11-1.43-4.25-2.59c-1.14-1.16-1.99-2.61-2.54-4.38c-0.56-1.76-0.84-3.83-0.84-6.2c0-2.25,0.29-4.29,0.88-6.1
		c0.59-1.81,1.44-3.34,2.56-4.6c1.12-1.26,2.48-2.22,4.08-2.88c1.6-0.66,3.41-1,5.41-1c2.12,0,3.94,0.31,5.44,0.94
		c1.51,0.63,2.74,1.49,3.71,2.6c0.97,1.11,1.68,2.42,2.13,3.94c0.46,1.52,0.68,3.16,0.68,4.95V325.45z M712.56,323.4
		c0.06-2.01-0.35-3.58-1.21-4.73c-0.86-1.15-2.19-1.72-3.99-1.72c-0.91,0-1.7,0.17-2.37,0.51c-0.67,0.34-1.23,0.8-1.68,1.38
		c-0.45,0.58-0.79,1.26-1.02,2.05c-0.24,0.79-0.38,1.63-0.41,2.52H712.56z"/>
	<path class="st0" d="M742.82,334.83c0,0.49-0.01,0.9-0.04,1.24c-0.03,0.33-0.07,0.61-0.11,0.84c-0.05,0.23-0.1,0.41-0.17,0.55
		s-0.21,0.32-0.44,0.54c-0.23,0.22-0.62,0.48-1.17,0.8c-0.55,0.31-1.17,0.59-1.88,0.84c-0.7,0.25-1.46,0.44-2.29,0.6
		c-0.82,0.15-1.67,0.23-2.54,0.23c-1.95,0-3.68-0.3-5.19-0.91c-1.51-0.61-2.77-1.5-3.79-2.69c-1.02-1.18-1.8-2.63-2.32-4.33
		c-0.52-1.71-0.78-3.66-0.78-5.85c0-2.54,0.32-4.73,0.95-6.58c0.63-1.85,1.52-3.38,2.66-4.59c1.14-1.21,2.48-2.11,4.04-2.7
		c1.55-0.59,3.26-0.88,5.12-0.88c0.76,0,1.5,0.07,2.23,0.2c0.73,0.13,1.41,0.31,2.05,0.54s1.2,0.48,1.71,0.77
		c0.5,0.28,0.86,0.53,1.07,0.74c0.21,0.21,0.36,0.38,0.44,0.53s0.15,0.33,0.2,0.55c0.05,0.23,0.08,0.51,0.11,0.84
		s0.04,0.73,0.04,1.21c0,1.1-0.1,1.87-0.28,2.32c-0.19,0.45-0.44,0.67-0.74,0.67c-0.32,0-0.66-0.13-1.02-0.4
		c-0.36-0.27-0.79-0.56-1.28-0.88c-0.49-0.32-1.08-0.62-1.76-0.88c-0.68-0.27-1.5-0.4-2.44-0.4c-1.86,0-3.28,0.72-4.26,2.15
		c-0.99,1.43-1.48,3.53-1.48,6.29c0,1.36,0.12,2.57,0.37,3.61c0.25,1.04,0.61,1.91,1.09,2.61c0.48,0.7,1.09,1.23,1.82,1.58
		s1.58,0.53,2.54,0.53c0.98,0,1.83-0.15,2.54-0.44c0.71-0.29,1.33-0.62,1.86-0.98c0.53-0.36,0.98-0.69,1.34-0.98
		c0.36-0.29,0.66-0.44,0.91-0.44c0.17,0,0.31,0.05,0.43,0.14c0.11,0.1,0.2,0.27,0.27,0.53s0.12,0.58,0.16,0.98
		S742.82,334.2,742.82,334.83z"/>
	<path class="st0" d="M770.46,338.86c0,0.19-0.06,0.36-0.17,0.5c-0.11,0.14-0.3,0.26-0.57,0.35c-0.27,0.1-0.63,0.17-1.09,0.21
		c-0.46,0.05-1.04,0.07-1.72,0.07c-0.7,0-1.28-0.02-1.75-0.07c-0.46-0.05-0.83-0.12-1.09-0.21c-0.27-0.09-0.45-0.21-0.57-0.35
		c-0.11-0.14-0.17-0.31-0.17-0.5V324.4c0-1.23-0.09-2.2-0.27-2.9c-0.18-0.7-0.44-1.3-0.78-1.8s-0.78-0.89-1.32-1.17
		c-0.54-0.27-1.17-0.41-1.89-0.41c-0.91,0-1.83,0.33-2.76,1s-1.89,1.63-2.9,2.9v16.85c0,0.19-0.06,0.36-0.17,0.5
		c-0.11,0.14-0.31,0.26-0.58,0.35c-0.28,0.1-0.64,0.17-1.09,0.21c-0.46,0.05-1.03,0.07-1.73,0.07c-0.7,0-1.28-0.02-1.73-0.07
		c-0.46-0.05-0.82-0.12-1.09-0.21c-0.27-0.09-0.47-0.21-0.58-0.35c-0.11-0.14-0.17-0.31-0.17-0.5v-25.35c0-0.19,0.05-0.35,0.14-0.5
		s0.27-0.26,0.51-0.36c0.25-0.09,0.56-0.17,0.95-0.21c0.39-0.05,0.88-0.07,1.46-0.07c0.61,0,1.11,0.02,1.51,0.07
		c0.4,0.05,0.71,0.12,0.92,0.21c0.22,0.1,0.37,0.21,0.47,0.36s0.14,0.31,0.14,0.5v2.93c1.4-1.52,2.83-2.65,4.28-3.41
		s2.96-1.14,4.53-1.14c1.72,0,3.18,0.28,4.36,0.85c1.18,0.57,2.14,1.34,2.87,2.32c0.73,0.98,1.25,2.12,1.58,3.42
		c0.32,1.31,0.48,2.88,0.48,4.72V338.86z"/>
	<path class="st0" d="M801.37,325.93c0,2.16-0.28,4.13-0.85,5.91c-0.57,1.78-1.43,3.32-2.59,4.6c-1.16,1.29-2.61,2.28-4.35,2.98
		s-3.78,1.05-6.11,1.05c-2.25,0-4.22-0.31-5.88-0.94c-1.67-0.63-3.05-1.53-4.15-2.73c-1.1-1.19-1.91-2.66-2.44-4.41
		c-0.53-1.74-0.8-3.73-0.8-5.97c0-2.16,0.29-4.13,0.87-5.93s1.44-3.33,2.6-4.6c1.16-1.28,2.6-2.27,4.33-2.97
		c1.73-0.7,3.77-1.05,6.1-1.05c2.27,0,4.24,0.31,5.91,0.92c1.67,0.62,3.04,1.52,4.13,2.71c1.09,1.19,1.9,2.66,2.43,4.4
		C801.1,321.68,801.37,323.68,801.37,325.93z M794.01,326.22c0-1.25-0.1-2.4-0.3-3.45c-0.2-1.05-0.54-1.97-1.01-2.74
		c-0.47-0.78-1.1-1.38-1.89-1.82c-0.79-0.44-1.78-0.65-2.97-0.65c-1.06,0-1.99,0.19-2.79,0.58c-0.8,0.39-1.45,0.96-1.96,1.71
		c-0.51,0.75-0.89,1.65-1.15,2.7c-0.26,1.05-0.38,2.25-0.38,3.6c0,1.25,0.1,2.4,0.31,3.45c0.21,1.05,0.54,1.97,1.01,2.74
		s1.09,1.38,1.89,1.8c0.79,0.43,1.78,0.64,2.96,0.64c1.08,0,2.02-0.19,2.81-0.58c0.8-0.39,1.45-0.95,1.96-1.69
		c0.51-0.74,0.89-1.63,1.14-2.69C793.88,328.76,794.01,327.56,794.01,326.22z"/>
	<path class="st0" d="M812.44,338.86c0,0.19-0.06,0.36-0.17,0.5c-0.11,0.14-0.31,0.26-0.58,0.35c-0.28,0.1-0.64,0.17-1.09,0.21
		c-0.46,0.05-1.03,0.07-1.73,0.07c-0.7,0-1.28-0.02-1.73-0.07c-0.46-0.05-0.82-0.12-1.09-0.21c-0.27-0.09-0.47-0.21-0.58-0.35
		c-0.11-0.14-0.17-0.31-0.17-0.5v-37.37c0-0.19,0.06-0.36,0.17-0.51c0.11-0.15,0.31-0.28,0.58-0.38c0.27-0.1,0.64-0.18,1.09-0.24
		c0.45-0.06,1.03-0.08,1.73-0.08c0.7,0,1.28,0.03,1.73,0.08c0.46,0.06,0.82,0.14,1.09,0.24c0.27,0.1,0.47,0.23,0.58,0.38
		c0.11,0.15,0.17,0.32,0.17,0.51V338.86z"/>
	<path class="st0" d="M843.46,325.93c0,2.16-0.28,4.13-0.85,5.91c-0.57,1.78-1.43,3.32-2.59,4.6c-1.16,1.29-2.61,2.28-4.35,2.98
		s-3.78,1.05-6.11,1.05c-2.25,0-4.22-0.31-5.88-0.94c-1.67-0.63-3.05-1.53-4.15-2.73c-1.1-1.19-1.91-2.66-2.44-4.41
		c-0.53-1.74-0.8-3.73-0.8-5.97c0-2.16,0.29-4.13,0.87-5.93s1.44-3.33,2.6-4.6c1.16-1.28,2.6-2.27,4.33-2.97
		c1.73-0.7,3.77-1.05,6.1-1.05c2.27,0,4.24,0.31,5.91,0.92c1.67,0.62,3.04,1.52,4.13,2.71c1.09,1.19,1.9,2.66,2.43,4.4
		C843.2,321.68,843.46,323.68,843.46,325.93z M836.1,326.22c0-1.25-0.1-2.4-0.3-3.45c-0.2-1.05-0.54-1.97-1.01-2.74
		c-0.47-0.78-1.1-1.38-1.89-1.82c-0.79-0.44-1.78-0.65-2.97-0.65c-1.06,0-1.99,0.19-2.79,0.58c-0.8,0.39-1.45,0.96-1.96,1.71
		c-0.51,0.75-0.89,1.65-1.15,2.7c-0.26,1.05-0.38,2.25-0.38,3.6c0,1.25,0.1,2.4,0.31,3.45c0.21,1.05,0.54,1.97,1.01,2.74
		s1.09,1.38,1.89,1.8c0.79,0.43,1.78,0.64,2.96,0.64c1.08,0,2.02-0.19,2.81-0.58c0.8-0.39,1.45-0.95,1.96-1.69
		c0.51-0.74,0.89-1.63,1.14-2.69C835.98,328.76,836.1,327.56,836.1,326.22z"/>
	<path class="st0" d="M870.22,315.27c0,0.91-0.1,1.58-0.31,2.02c-0.21,0.44-0.46,0.65-0.77,0.65h-2.98
		c0.42,0.45,0.71,0.97,0.89,1.55c0.18,0.58,0.27,1.18,0.27,1.8c0,1.48-0.25,2.79-0.74,3.94s-1.2,2.11-2.12,2.9s-2.03,1.38-3.33,1.79
		s-2.74,0.61-4.33,0.61c-0.81,0-1.59-0.1-2.33-0.3c-0.74-0.2-1.31-0.43-1.71-0.7c-0.23,0.25-0.43,0.54-0.61,0.88
		c-0.18,0.34-0.27,0.72-0.27,1.14c0,0.55,0.24,1,0.72,1.35c0.48,0.35,1.16,0.54,2.03,0.58l6.17,0.23c1.44,0.06,2.72,0.26,3.85,0.61
		c1.13,0.35,2.07,0.84,2.84,1.48c0.77,0.64,1.35,1.4,1.76,2.29c0.41,0.89,0.61,1.9,0.61,3.04c0,1.25-0.27,2.43-0.82,3.54
		s-1.37,2.07-2.47,2.88c-1.1,0.81-2.48,1.46-4.13,1.93c-1.66,0.47-3.6,0.71-5.81,0.71c-2.16,0-4-0.17-5.53-0.51
		c-1.53-0.34-2.78-0.81-3.75-1.42c-0.98-0.61-1.69-1.33-2.13-2.17c-0.45-0.84-0.67-1.77-0.67-2.77c0-0.63,0.08-1.22,0.24-1.79
		s0.4-1.11,0.71-1.63c0.31-0.52,0.7-1.02,1.15-1.49c0.46-0.47,0.98-0.93,1.56-1.36c-0.81-0.44-1.45-1.03-1.89-1.78
		c-0.45-0.75-0.67-1.57-0.67-2.46c0-1.12,0.26-2.14,0.77-3.06c0.51-0.92,1.17-1.75,1.99-2.49c-0.66-0.66-1.19-1.46-1.59-2.39
		c-0.4-0.93-0.6-2.08-0.6-3.47c0-1.48,0.26-2.8,0.78-3.96c0.52-1.17,1.25-2.15,2.17-2.96c0.93-0.81,2.04-1.42,3.33-1.85
		c1.29-0.43,2.71-0.64,4.26-0.64c0.8,0,1.56,0.05,2.29,0.14c0.73,0.1,1.41,0.23,2.03,0.4h8.04c0.32,0,0.58,0.21,0.78,0.63
		C870.12,313.59,870.22,314.29,870.22,315.27z M862.72,341.51c0-0.85-0.34-1.51-1.02-1.96c-0.68-0.45-1.62-0.7-2.81-0.74l-5.09-0.14
		c-0.49,0.36-0.89,0.71-1.18,1.04c-0.29,0.33-0.53,0.65-0.71,0.95c-0.18,0.3-0.3,0.6-0.36,0.88s-0.08,0.58-0.08,0.88
		c0,0.95,0.48,1.67,1.43,2.16s2.31,0.74,4.05,0.74c1.08,0,1.99-0.11,2.73-0.33c0.74-0.22,1.34-0.51,1.79-0.87
		c0.45-0.36,0.78-0.76,0.97-1.21S862.72,342,862.72,341.51z M861.04,321.27c0-1.36-0.38-2.42-1.14-3.18
		c-0.76-0.76-1.83-1.14-3.21-1.14c-0.7,0-1.32,0.12-1.85,0.35c-0.53,0.24-0.97,0.56-1.32,0.97c-0.35,0.41-0.61,0.88-0.78,1.42
		c-0.17,0.54-0.26,1.1-0.26,1.69c0,1.29,0.38,2.31,1.14,3.06c0.76,0.75,1.81,1.12,3.16,1.12c0.72,0,1.34-0.11,1.88-0.34
		c0.53-0.23,0.97-0.54,1.32-0.94s0.62-0.86,0.8-1.38C860.95,322.38,861.04,321.84,861.04,321.27z"/>
	<path class="st0" d="M880.38,338.86c0,0.19-0.06,0.36-0.17,0.5c-0.11,0.14-0.31,0.26-0.58,0.35c-0.28,0.1-0.64,0.17-1.09,0.21
		c-0.46,0.05-1.03,0.07-1.73,0.07c-0.7,0-1.28-0.02-1.73-0.07c-0.46-0.05-0.82-0.12-1.09-0.21c-0.27-0.09-0.47-0.21-0.58-0.35
		c-0.11-0.14-0.17-0.31-0.17-0.5v-25.35c0-0.19,0.06-0.35,0.17-0.5c0.11-0.14,0.31-0.26,0.58-0.36c0.27-0.09,0.64-0.17,1.09-0.21
		c0.45-0.05,1.03-0.07,1.73-0.07c0.7,0,1.28,0.02,1.73,0.07c0.46,0.05,0.82,0.12,1.09,0.21c0.27,0.1,0.47,0.21,0.58,0.36
		c0.11,0.14,0.17,0.31,0.17,0.5V338.86z M877.66,301.06c0.13-0.21,0.29-0.39,0.48-0.54c0.19-0.15,0.43-0.27,0.71-0.35
		c0.28-0.09,0.64-0.15,1.08-0.18s0.97-0.06,1.59-0.06c0.87,0,1.56,0.04,2.06,0.11c0.5,0.08,0.86,0.18,1.08,0.33
		c0.22,0.14,0.32,0.31,0.3,0.5s-0.11,0.39-0.28,0.6l-5.51,6.59c-0.15,0.19-0.3,0.35-0.45,0.47c-0.15,0.12-0.35,0.22-0.58,0.3
		c-0.24,0.08-0.54,0.13-0.9,0.17c-0.36,0.04-0.81,0.06-1.36,0.06c-0.66,0-1.19-0.03-1.58-0.09c-0.39-0.06-0.66-0.15-0.81-0.27
		c-0.15-0.12-0.21-0.28-0.18-0.47c0.03-0.19,0.13-0.41,0.3-0.65L877.66,301.06z"/>
	<path class="st0" d="M907.37,338.95c0,0.27-0.09,0.47-0.28,0.63c-0.19,0.15-0.49,0.26-0.9,0.33c-0.41,0.07-1.01,0.1-1.8,0.1
		c-0.85,0-1.47-0.03-1.86-0.1c-0.39-0.07-0.66-0.18-0.82-0.33c-0.16-0.15-0.24-0.36-0.24-0.63v-2.02c-1.04,1.12-2.23,1.99-3.57,2.61
		c-1.34,0.63-2.82,0.94-4.45,0.94c-1.35,0-2.58-0.18-3.71-0.53c-1.13-0.35-2.1-0.87-2.93-1.56c-0.82-0.69-1.46-1.55-1.92-2.57
		c-0.46-1.02-0.68-2.22-0.68-3.58c0-1.48,0.29-2.76,0.87-3.85c0.58-1.09,1.44-1.99,2.59-2.7s2.57-1.24,4.28-1.58
		c1.71-0.34,3.68-0.51,5.94-0.51h2.47v-1.53c0-0.8-0.08-1.49-0.24-2.09c-0.16-0.6-0.43-1.09-0.8-1.49c-0.37-0.4-0.86-0.69-1.48-0.88
		c-0.62-0.19-1.38-0.28-2.29-0.28c-1.19,0-2.26,0.13-3.2,0.4c-0.94,0.27-1.77,0.56-2.49,0.88c-0.72,0.32-1.32,0.62-1.8,0.88
		c-0.48,0.27-0.88,0.4-1.18,0.4c-0.21,0-0.39-0.07-0.55-0.2c-0.16-0.13-0.29-0.32-0.4-0.57c-0.1-0.25-0.18-0.55-0.24-0.91
		c-0.06-0.36-0.09-0.76-0.09-1.19c0-0.59,0.05-1.05,0.14-1.39c0.09-0.34,0.27-0.65,0.54-0.92c0.26-0.27,0.73-0.58,1.39-0.91
		c0.66-0.33,1.44-0.64,2.33-0.92s1.86-0.52,2.91-0.7c1.05-0.18,2.14-0.27,3.25-0.27c1.99,0,3.69,0.19,5.1,0.58s2.57,0.99,3.48,1.79
		c0.91,0.81,1.57,1.84,1.99,3.11c0.42,1.27,0.63,2.78,0.63,4.52V338.95z M900.35,328.09h-2.73c-1.16,0-2.14,0.09-2.96,0.26
		s-1.48,0.43-1.99,0.77c-0.51,0.34-0.89,0.75-1.12,1.24c-0.24,0.48-0.35,1.04-0.35,1.66c0,1.06,0.34,1.89,1.01,2.5
		c0.67,0.61,1.61,0.91,2.8,0.91c1,0,1.93-0.26,2.77-0.77c0.84-0.51,1.7-1.26,2.57-2.25V328.09z"/>
</g>
</svg>
