<?xml version="1.0" encoding="utf-8"?>
<!-- Generator: Adobe Illustrator 22.1.0, SVG Export Plug-In . SVG Version: 6.00 Build 0)  -->
<svg version="1.1"
	 id="svg2" inkscape:version="0.48.3.1 r9886" sodipodi:docname="Microsoft-Office-2013-lineup.svg" xmlns:cc="http://creativecommons.org/ns#" xmlns:dc="http://purl.org/dc/elements/1.1/" xmlns:inkscape="http://www.inkscape.org/namespaces/inkscape" xmlns:rdf="http://www.w3.org/1999/02/22-rdf-syntax-ns#" xmlns:sodipodi="http://sodipodi.sourceforge.net/DTD/sodipodi-0.dtd" xmlns:svg="http://www.w3.org/2000/svg"
	 xmlns="http://www.w3.org/2000/svg" xmlns:xlink="http://www.w3.org/1999/xlink" x="0px" y="0px" viewBox="0 0 110 110"
	 style="enable-background:new 0 0 110 110;" xml:space="preserve">
<style type="text/css">
	.st0{fill:#FFFFFF;}
</style>
<sodipodi:namedview  bordercolor="#666666" borderopacity="1" fit-margin-bottom="0" fit-margin-left="0" fit-margin-right="0" fit-margin-top="0" gridtolerance="10" guidetolerance="10" id="namedview122" inkscape:current-layer="svg2" inkscape:cx="321.51598" inkscape:cy="53.75" inkscape:pageopacity="0" inkscape:pageshadow="2" inkscape:window-height="960" inkscape:window-maximized="1" inkscape:window-width="1280" inkscape:window-x="0" inkscape:window-y="0" inkscape:zoom="1.0905983" objecttolerance="10" pagecolor="#ffffff" showgrid="false">
	</sodipodi:namedview>
<path class="st0" d="M108.8,16.8c0.3-2.8-1.9-5-4.7-4.7c-13.1-0.2-26.2,0-39.3-0.1c0-3.3,0-6.5,0-9.8V1C46,4.4,19.8,8.8,0.9,12.1
	c0,28.6,0,57.2,0,85.8c18.7,3.3,45.1,7.9,63.8,11.3v-1.5c0-3.3,0-6.5,0-9.8c12.3,0,24.5-0.1,36.8,0c2.1-0.1,4.4,0.1,6.2-1.2
	c1.4-2.2,1.1-4.9,1.2-7.4C108.8,65.1,109,41,108.8,16.8z M42,71.6c-2,1.1-5.1,0-7.5,0.1c-1.6-8.1-3.5-16.2-5-24.3
	c-1.4,7.9-3.3,15.8-4.9,23.6c-2.4-0.1-4.7-0.3-7.1-0.4c-2-10.8-4.4-21.5-6.3-32.3c2.1-0.1,4.2-0.2,6.3-0.3
	c1.3,7.8,2.7,15.6,3.8,23.4c1.6-7.9,3.3-16,5.1-24c2.3-0.1,4.7-0.2,7-0.4c1.6,8.3,3.3,16.5,5.1,24.8c1.4-8.5,2.9-17,4.4-25.5
	c2.5-0.1,4.9-0.2,7.3-0.4C47.4,47.8,45,59.8,42,71.6z M105.3,94.3c-13.5,0-27,0-40.5,0c0-3.3,0-6.5,0-9.8c10.6,0,21.3,0,31.9,0
	c0-1.6,0-3.3,0-4.9c-10.6,0-21.3,0-31.9,0c0-2,0-4.1,0-6.1c10.6,0,21.3,0,31.9,0c0-1.6,0-3.3,0-4.9c-10.6,0-21.3,0-31.9,0
	c0-2,0-4.1,0-6.1c10.6,0,21.3,0,31.9,0c0-1.6,0-3.3,0-4.9c-10.6,0-21.3,0-31.9,0c0-2,0-4.1,0-6.1c10.6,0,21.3,0,31.9,0
	c0-1.6,0-3.3,0-4.9c-10.6,0-21.3,0-31.9,0c0-2,0-4.1,0-6.1c10.6,0,21.3,0,31.9,0c0-1.6,0-3.3,0-4.9c-10.6,0-21.3,0-31.9,0
	c0-2,0-4.1,0-6.1c10.6,0,21.3,0,31.9,0c0-1.6,0-3.3,0-4.9c-10.6,0-21.3,0-31.9,0c0-3.1,0-6,0-8.8c13.5,0,27,0,40.5,0
	C105.3,42,105.3,68.1,105.3,94.3z"/>
</svg>
