<?xml version="1.0" encoding="utf-8"?>
<!-- Generator: Adobe Illustrator 23.0.0, SVG Export Plug-In . SVG Version: 6.00 Build 0)  -->
<svg version="1.1" id="Capa_1" xmlns="http://www.w3.org/2000/svg" xmlns:xlink="http://www.w3.org/1999/xlink" x="0px" y="0px"
	 viewBox="0 0 110 110" style="enable-background:new 0 0 110 110;" xml:space="preserve">
<style type="text/css">
	.st0{fill:#FFFFFF;}
</style>
<path class="st0" d="M6.3,7.6h97.5v94.8H6.3V7.6z M1.8,106.8h106.3V3.2H1.8V106.8z M73.5,45.7c-3.5,0-4.7,1.8-4.7,3.2
	c0,1.6,0.8,2.7,5.5,5.1c7,3.4,9.1,6.6,9.1,11.3c0,7.1-5.4,10.9-12.7,10.9c-3.9,0-7.2-0.8-9.1-1.9c-0.3-0.1-0.4-0.4-0.4-0.7v-6.5
	c0-0.4,0.2-0.6,0.5-0.4c2.8,1.8,6,2.6,8.9,2.6c3.5,0,5-1.5,5-3.5c0-1.6-1-3-5.5-5.3c-6.3-3-8.9-6.1-8.9-11.2
	c0-5.7,4.5-10.5,12.2-10.5c3.8,0,6.5,0.6,7.9,1.2c0.4,0.2,0.4,0.6,0.4,0.9v6.1c0,0.4-0.2,0.6-0.7,0.4C79.3,46.4,76.4,45.7,73.5,45.7
	L73.5,45.7z M35.4,51c1,0.1,1.8,0.1,3.6,0.1c5.2,0,10.1-1.8,10.1-8.9c0-5.6-3.5-8.5-9.4-8.5c-1.8,0-3.5,0.1-4.3,0.1V51z M27.5,27.4
	c0-0.3,0.6-0.5,1-0.5c2.8-0.1,7-0.2,11.4-0.2C52.2,26.7,57,33.4,57,42c0,11.3-8.2,16.1-18.2,16.1c-1.7,0-2.3-0.1-3.5-0.1v17
	c0,0.4-0.1,0.5-0.5,0.5h-6.8c-0.4,0-0.5-0.1-0.5-0.5L27.5,27.4L27.5,27.4z"/>
</svg>
