<?xml version="1.0" encoding="utf-8"?>
<!-- Generator: Adobe Illustrator 23.0.0, SVG Export Plug-In . SVG Version: 6.00 Build 0)  -->
<svg version="1.1"
	 id="svg2" inkscape:version="0.48.3.1 r9886" sodipodi:docname="o.svg" xmlns:cc="http://creativecommons.org/ns#" xmlns:dc="http://purl.org/dc/elements/1.1/" xmlns:inkscape="http://www.inkscape.org/namespaces/inkscape" xmlns:rdf="http://www.w3.org/1999/02/22-rdf-syntax-ns#" xmlns:sodipodi="http://sodipodi.sourceforge.net/DTD/sodipodi-0.dtd" xmlns:svg="http://www.w3.org/2000/svg"
	 xmlns="http://www.w3.org/2000/svg" xmlns:xlink="http://www.w3.org/1999/xlink" x="0px" y="0px" viewBox="0 0 110 110"
	 style="enable-background:new 0 0 110 110;" xml:space="preserve">
<style type="text/css">
	.st0{fill:#FFFFFF;}
</style>
<sodipodi:namedview  bordercolor="#666666" borderopacity="1" fit-margin-bottom="0" fit-margin-left="0" fit-margin-right="0" fit-margin-top="0" gridtolerance="10" guidetolerance="10" id="namedview122" inkscape:current-layer="svg2" inkscape:cx="404.86423" inkscape:cy="53.75" inkscape:pageopacity="0" inkscape:pageshadow="2" inkscape:window-height="960" inkscape:window-maximized="1" inkscape:window-width="1280" inkscape:window-x="0" inkscape:window-y="0" inkscape:zoom="1.0905983" objecttolerance="10" pagecolor="#ffffff" showgrid="false">
	</sodipodi:namedview>
<g>
	<path class="st0" d="M105.5,29c0.4-4.8-4-8-8-9.3c-10.7-3.8-22.4-3.9-33.6-2.5c0-3.4,0-6.7,0-10.1l-0.1-6.8l-60,16.1v81l60.1,12.4
		v-3.1c0-4.2,0-8.3,0-12.5c11.1,1.6,22.7,1.2,33.4-2.4c4.1-1.4,8.6-4.5,8.2-9.4C105.5,64.6,105.5,46.8,105.5,29z M38.8,75.2
		c-0.7-2.9-1.5-5.8-2.2-8.7c-3.6,0-7.1-0.1-10.6-0.3c-0.7,2.7-1.4,5.5-2.1,8.2c-2.3-0.2-4.5-0.3-6.8-0.5
		c3.4-12.2,6.9-24.3,10.3-36.5c2.7-0.2,5.4-0.4,8.1-0.6c3.9,13,7.6,26,11.4,39C44.1,75.7,41.5,75.5,38.8,75.2z M63.9,20.7
		C74.2,19.3,85,19.3,95,22.4c2.8,1,6.5,2.3,7.1,5.6c-0.5,2.7-3.3,3.9-5.5,4.9c-10.5,3.5-21.8,3.9-32.7,2.2
		C63.9,30.3,63.9,25.5,63.9,20.7z M63.9,57.2c7.9,1,15.9,1,23.8-0.1c5.1-0.8,10.4-1.9,14.5-5.1c-0.2,5,0.4,10-0.3,14.9
		c-2,2.5-5.3,3.4-8.3,4.2c-9.7,2.3-19.8,2.4-29.6,1.1C63.9,67.2,63.9,62.2,63.9,57.2z M101.7,85.5c-3.3,3.6-8.5,4.2-13,5.1
		c-8.3,1.3-16.7,1.3-24.9,0.1c0.1-5,0-10,0-15c7.9,1,15.9,1,23.7-0.1c5.1-0.7,10.4-1.9,14.5-5.1C101.8,75.5,102.5,80.5,101.7,85.5z
		 M101.7,48.5c-2.1,2.5-5.4,3.3-8.3,4.2c-9.7,2.3-19.7,2.3-29.6,1.1c0-5,0-10,0-15c7.9,1,15.8,1,23.7,0c5.1-0.8,10.4-1.9,14.5-5.2
		C101.8,38.5,102.5,43.5,101.7,48.5z"/>
	<path id="path98" inkscape:connector-curvature="0" class="st0" d="M27.4,60c1.2-5.4,2.9-10.7,3.7-16.2c1,5.5,2.6,10.8,4,16.2
		C32.5,60.1,29.9,60.1,27.4,60z"/>
</g>
</svg>
