<?xml version="1.0" encoding="utf-8"?>
<!-- Generator: Adobe Illustrator 23.0.0, SVG Export Plug-In . SVG Version: 6.00 Build 0)  -->
<svg version="1.1"
	 id="Layer_1" inkscape:version="0.91 r13725" sodipodi:docname="corel-draw-x8-seeklogo.com.svg" xmlns:cc="http://creativecommons.org/ns#" xmlns:dc="http://purl.org/dc/elements/1.1/" xmlns:inkscape="http://www.inkscape.org/namespaces/inkscape" xmlns:rdf="http://www.w3.org/1999/02/22-rdf-syntax-ns#" xmlns:sodipodi="http://sodipodi.sourceforge.net/DTD/sodipodi-0.dtd" xmlns:svg="http://www.w3.org/2000/svg"
	 xmlns="http://www.w3.org/2000/svg" xmlns:xlink="http://www.w3.org/1999/xlink" x="0px" y="0px" viewBox="0 0 110 110"
	 style="enable-background:new 0 0 110 110;" xml:space="preserve">
<style type="text/css">
	.st0{fill-rule:evenodd;clip-rule:evenodd;fill:#FFFFFF;}
</style>
<g>
	<title  id="title4201">CorelDraw logo</title>
	
		<sodipodi:namedview  bordercolor="#666666" borderopacity="1" gridtolerance="10" guidetolerance="10" id="namedview69" inkscape:current-layer="Layer_1" inkscape:cx="73.369086" inkscape:cy="40.329949" inkscape:pageopacity="0" inkscape:pageshadow="2" inkscape:showpageshadow="false" inkscape:window-height="705" inkscape:window-maximized="1" inkscape:window-width="1366" inkscape:window-x="-8" inkscape:window-y="-8" inkscape:zoom="4.54" objecttolerance="10" pagecolor="#ffffff" showgrid="false">
		</sodipodi:namedview>
	<polygon id="polygon57" class="st0" points="44.3,100.1 44.3,100.1 46.9,109.8 59.7,109.8 62.1,99.9 	"/>
	<path id="path59" inkscape:connector-curvature="0" class="st0" d="M50.9,93.3l0.5,1.4l0.3,0.6l3.1,0l0.4-0.2l0.4-1
		c1.9-4.4,6.9-23.4,7.9-28.2c2.8-13.1,4.9-26.5,3.9-39.8c-0.4-5.1-1.4-10.7-3.5-15.4c-1.6-3.6-4-7.8-8.2-9.4
		c-4.6-1.8-9,2.5-10.9,5.9C34.3,25.5,41,57.1,45.9,75.8l1.6,6.4C48.6,85.9,49.8,89.2,50.9,93.3L50.9,93.3z"/>
	<path id="path61" inkscape:connector-curvature="0" class="st0" d="M49.6,94.2l-1.8-1.4C26.1,74.4-3.5,12.2,43.3,0.7
		c1.9-0.5,1.5-0.4,3.4-0.4C9.8,14.7,34.7,70.9,49.6,94.2C49.6,94.2,49.6,94.2,49.6,94.2z"/>
	<path id="path63" inkscape:connector-curvature="0" class="st0" d="M57.4,94.2l1.8-1.4c21.7-18.5,51.3-80.7,4.5-92.2
		c-1.9-0.5-1.5-0.4-3.4-0.4C97.2,14.7,72.4,70.9,57.4,94.2C57.4,94.2,57.4,94.2,57.4,94.2z"/>
	<path id="path65" inkscape:connector-curvature="0" class="st0" d="M28.2,5.2c-9.2,3.9-16.3,12.4-17.8,21.5L10,30.6l0,3.1l0.5,3.5
		l0.3,1.6C14.4,57,31,80.8,45.6,93.4C25.4,69-5,30.2,28.2,5.2L28.2,5.2z"/>
	<path id="path67" inkscape:connector-curvature="0" class="st0" d="M78.9,5.2c9.2,3.9,16.3,12.4,17.8,21.5l0.4,3.9l0,3.1l-0.5,3.5
		l-0.3,1.6c-3.6,18.2-20.2,42-34.8,54.6C81.6,69,112.1,30.2,78.9,5.2L78.9,5.2z"/>
</g>
</svg>
