<?xml version="1.0" encoding="utf-8"?>
<!-- Generator: Adobe Illustrator 23.0.0, SVG Export Plug-In . SVG Version: 6.00 Build 0)  -->
<svg version="1.1" id="Capa_1" xmlns="http://www.w3.org/2000/svg" xmlns:xlink="http://www.w3.org/1999/xlink" x="0px" y="0px"
	 viewBox="0 0 283.46 283.46" style="enable-background:new 0 0 283.46 283.46;" xml:space="preserve">
<style type="text/css">
	.st0{fill:none;stroke:#FFFFFF;stroke-width:9.0945;stroke-linecap:round;stroke-linejoin:round;stroke-miterlimit:10;}
</style>
<g>
	<path class="st0" d="M76.56,37.62c0,0,54.12,53.87,167.15,31.87"/>
	<path class="st0" d="M44.69,66.28c0,0,30.69,43.32,104.03,54.51s112.31-15.2,112.31-15.2"/>
	<path class="st0" d="M18.2,125.11c0,0,32.92,48.9,120.36,62.25c88.18,13.46,125.19-18.41,125.19-18.41"/>
	<path class="st0" d="M25.92,189.21c0,0,33.45,32.82,105.66,43.84c72.2,11.02,103.63-8.57,103.63-8.57"/>
	<path class="st0" d="M136.88,16.81c0,0-64.41,51.35-66.93,128.32c-2.52,76.97,41.98,117.89,41.98,117.89"/>
	<path class="st0" d="M182.58,23.79c0,0,46.32,59.6,29.53,143.05s-72.06,99.79-72.06,99.79"/>
	<circle class="st0" cx="141.73" cy="141.95" r="124.68"/>
	<path class="st0" d="M70.69,39.49c0,0-68.51,85.82-23.52,183.73"/>
	<path class="st0" d="M232.91,56.9c0,0,49.34,92.91-17.98,185.97"/>
	<line class="st0" x1="164.22" y1="19.25" x2="126.58" y2="265.77"/>
</g>
</svg>
